<?xml version="1.0" encoding="utf-8"?>
<!-- Generator: Adobe Illustrator 25.2.0, SVG Export Plug-In . SVG Version: 6.00 Build 0)  -->
<svg version="1.1" id="Layer_1" xmlns="http://www.w3.org/2000/svg" xmlns:xlink="http://www.w3.org/1999/xlink" x="0px" y="0px"
	 viewBox="0 0 432 432" style="enable-background:new 0 0 432 432;" xml:space="preserve">
<style type="text/css">
	.st0{display:none;}
	.st1{display:inline;}
	.st2{clip-path:url(#SVGID_2_);}
	.st3{fill:none;stroke:#B6E4FA;stroke-width:0.5;stroke-miterlimit:10;}
	.st4{fill:#FFFFFF;}
</style>
<g id="Iso_Grid" class="st0">
	<g class="st1">
		<g>
			<g>
				<defs>
					<rect id="SVGID_1_" width="432" height="432"/>
				</defs>
				<clipPath id="SVGID_2_">
					<use xlink:href="#SVGID_1_"  style="overflow:visible;"/>
				</clipPath>
				<g class="st2">
					<g>
						<line class="st3" x1="0" y1="-99.4" x2="0" y2="531.4"/>
						<line class="st3" x1="14.4" y1="-99.4" x2="14.4" y2="531.4"/>
						<line class="st3" x1="28.8" y1="-99.4" x2="28.8" y2="531.4"/>
						<line class="st3" x1="43.2" y1="-99.4" x2="43.2" y2="531.4"/>
						<line class="st3" x1="57.6" y1="-99.4" x2="57.6" y2="531.4"/>
						<line class="st3" x1="72" y1="-99.4" x2="72" y2="531.4"/>
						<line class="st3" x1="86.4" y1="-99.4" x2="86.4" y2="531.4"/>
						<line class="st3" x1="100.8" y1="-99.4" x2="100.8" y2="531.4"/>
						<line class="st3" x1="115.2" y1="-99.4" x2="115.2" y2="531.4"/>
						<line class="st3" x1="129.6" y1="-99.4" x2="129.6" y2="531.4"/>
						<line class="st3" x1="144" y1="-99.4" x2="144" y2="531.4"/>
						<line class="st3" x1="158.4" y1="-99.4" x2="158.4" y2="531.4"/>
						<line class="st3" x1="172.8" y1="-99.4" x2="172.8" y2="531.4"/>
						<line class="st3" x1="187.2" y1="-99.4" x2="187.2" y2="531.4"/>
						<line class="st3" x1="201.6" y1="-99.4" x2="201.6" y2="531.4"/>
						<line class="st3" x1="216" y1="-99.4" x2="216" y2="531.4"/>
						<line class="st3" x1="230.4" y1="-99.4" x2="230.4" y2="531.4"/>
						<line class="st3" x1="244.8" y1="-99.4" x2="244.8" y2="531.4"/>
						<line class="st3" x1="259.2" y1="-99.4" x2="259.2" y2="531.4"/>
						<line class="st3" x1="273.6" y1="-99.4" x2="273.6" y2="531.4"/>
						<line class="st3" x1="288" y1="-99.4" x2="288" y2="531.4"/>
						<line class="st3" x1="302.4" y1="-99.4" x2="302.4" y2="531.4"/>
						<line class="st3" x1="316.8" y1="-99.4" x2="316.8" y2="531.4"/>
						<line class="st3" x1="331.2" y1="-99.4" x2="331.2" y2="531.4"/>
						<line class="st3" x1="345.6" y1="-99.4" x2="345.6" y2="531.4"/>
						<line class="st3" x1="360" y1="-99.4" x2="360" y2="531.4"/>
						<line class="st3" x1="374.4" y1="-99.4" x2="374.4" y2="531.4"/>
						<line class="st3" x1="388.8" y1="-99.4" x2="388.8" y2="531.4"/>
						<line class="st3" x1="403.2" y1="-99.4" x2="403.2" y2="531.4"/>
						<line class="st3" x1="417.6" y1="-99.4" x2="417.6" y2="531.4"/>
						<line class="st3" x1="432" y1="-99.4" x2="432" y2="531.4"/>
					</g>
					<g>
						<line class="st3" x1="-240.7" y1="363.8" x2="305.6" y2="679.2"/>
						<line class="st3" x1="-233.5" y1="351.4" x2="312.8" y2="666.8"/>
						<line class="st3" x1="-226.3" y1="338.9" x2="320" y2="654.3"/>
						<line class="st3" x1="-219.1" y1="326.4" x2="327.2" y2="641.8"/>
						<line class="st3" x1="-211.9" y1="314" x2="334.4" y2="629.3"/>
						<line class="st3" x1="-204.7" y1="301.5" x2="341.6" y2="616.9"/>
						<line class="st3" x1="-197.5" y1="289" x2="348.8" y2="604.4"/>
						<line class="st3" x1="-190.3" y1="276.5" x2="356" y2="591.9"/>
						<line class="st3" x1="-183.1" y1="264.1" x2="363.2" y2="579.5"/>
						<line class="st3" x1="-175.9" y1="251.6" x2="370.4" y2="567"/>
						<line class="st3" x1="-168.7" y1="239.1" x2="377.6" y2="554.5"/>
						<line class="st3" x1="-161.5" y1="226.7" x2="384.8" y2="542.1"/>
						<line class="st3" x1="-154.3" y1="214.2" x2="392" y2="529.6"/>
						<line class="st3" x1="-147.1" y1="201.7" x2="399.2" y2="517.1"/>
						<line class="st3" x1="-139.9" y1="189.2" x2="406.4" y2="504.6"/>
						<line class="st3" x1="-132.7" y1="176.8" x2="413.6" y2="492.2"/>
						<line class="st3" x1="-125.5" y1="164.3" x2="420.8" y2="479.7"/>
						<line class="st3" x1="-118.3" y1="151.8" x2="428" y2="467.2"/>
						<line class="st3" x1="-111.1" y1="139.4" x2="435.2" y2="454.8"/>
						<line class="st3" x1="-103.9" y1="126.9" x2="442.4" y2="442.3"/>
						<line class="st3" x1="-96.7" y1="114.4" x2="449.6" y2="429.8"/>
						<line class="st3" x1="-89.5" y1="101.9" x2="456.8" y2="417.3"/>
						<line class="st3" x1="-82.3" y1="89.5" x2="464" y2="404.9"/>
						<line class="st3" x1="-75.1" y1="77" x2="471.2" y2="392.4"/>
						<line class="st3" x1="-67.9" y1="64.5" x2="478.4" y2="379.9"/>
						<line class="st3" x1="-60.7" y1="52.1" x2="485.6" y2="367.5"/>
						<line class="st3" x1="-53.5" y1="39.6" x2="492.8" y2="355"/>
						<line class="st3" x1="-46.3" y1="27.1" x2="500" y2="342.5"/>
						<line class="st3" x1="-39.1" y1="14.7" x2="507.2" y2="330.1"/>
						<line class="st3" x1="-31.9" y1="2.2" x2="514.4" y2="317.6"/>
						<line class="st3" x1="-24.7" y1="-10.3" x2="521.6" y2="305.1"/>
						<line class="st3" x1="-17.5" y1="-22.8" x2="528.8" y2="292.6"/>
						<line class="st3" x1="-10.3" y1="-35.2" x2="536" y2="280.2"/>
						<line class="st3" x1="-3.1" y1="-47.7" x2="543.2" y2="267.7"/>
						<line class="st3" x1="4.1" y1="-60.2" x2="550.4" y2="255.2"/>
						<line class="st3" x1="11.3" y1="-72.6" x2="557.6" y2="242.8"/>
						<line class="st3" x1="18.5" y1="-85.1" x2="564.8" y2="230.3"/>
						<line class="st3" x1="25.7" y1="-97.6" x2="572" y2="217.8"/>
						<line class="st3" x1="32.9" y1="-110.1" x2="579.2" y2="205.3"/>
						<line class="st3" x1="40.1" y1="-122.5" x2="586.4" y2="192.9"/>
						<line class="st3" x1="47.3" y1="-135" x2="593.6" y2="180.4"/>
						<line class="st3" x1="54.5" y1="-147.5" x2="600.8" y2="167.9"/>
						<line class="st3" x1="61.7" y1="-159.9" x2="608" y2="155.5"/>
						<line class="st3" x1="68.9" y1="-172.4" x2="615.2" y2="143"/>
						<line class="st3" x1="76.1" y1="-184.9" x2="622.4" y2="130.5"/>
						<line class="st3" x1="83.3" y1="-197.3" x2="629.6" y2="118"/>
						<line class="st3" x1="90.5" y1="-209.8" x2="636.8" y2="105.6"/>
						<line class="st3" x1="97.7" y1="-222.3" x2="644" y2="93.1"/>
						<line class="st3" x1="104.9" y1="-234.8" x2="651.2" y2="80.6"/>
						<line class="st3" x1="112.1" y1="-247.2" x2="658.4" y2="68.2"/>
					</g>
					<g>
						<line class="st3" x1="672.7" y1="363.8" x2="126.4" y2="679.2"/>
						<line class="st3" x1="665.5" y1="351.4" x2="119.2" y2="666.8"/>
						<line class="st3" x1="658.3" y1="338.9" x2="112" y2="654.3"/>
						<line class="st3" x1="651.1" y1="326.4" x2="104.8" y2="641.8"/>
						<line class="st3" x1="643.9" y1="314" x2="97.6" y2="629.3"/>
						<line class="st3" x1="636.7" y1="301.5" x2="90.4" y2="616.9"/>
						<line class="st3" x1="629.5" y1="289" x2="83.2" y2="604.4"/>
						<line class="st3" x1="622.3" y1="276.5" x2="76" y2="591.9"/>
						<line class="st3" x1="615.1" y1="264.1" x2="68.8" y2="579.5"/>
						<line class="st3" x1="607.9" y1="251.6" x2="61.6" y2="567"/>
						<line class="st3" x1="600.7" y1="239.1" x2="54.4" y2="554.5"/>
						<line class="st3" x1="593.5" y1="226.7" x2="47.2" y2="542.1"/>
						<line class="st3" x1="586.3" y1="214.2" x2="40" y2="529.6"/>
						<line class="st3" x1="579.1" y1="201.7" x2="32.8" y2="517.1"/>
						<line class="st3" x1="571.9" y1="189.2" x2="25.6" y2="504.6"/>
						<line class="st3" x1="564.7" y1="176.8" x2="18.4" y2="492.2"/>
						<line class="st3" x1="557.5" y1="164.3" x2="11.2" y2="479.7"/>
						<line class="st3" x1="550.3" y1="151.8" x2="4" y2="467.2"/>
						<line class="st3" x1="543.1" y1="139.4" x2="-3.2" y2="454.8"/>
						<line class="st3" x1="535.9" y1="126.9" x2="-10.4" y2="442.3"/>
						<line class="st3" x1="528.7" y1="114.4" x2="-17.6" y2="429.8"/>
						<line class="st3" x1="521.5" y1="101.9" x2="-24.8" y2="417.3"/>
						<line class="st3" x1="514.3" y1="89.5" x2="-32" y2="404.9"/>
						<line class="st3" x1="507.1" y1="77" x2="-39.2" y2="392.4"/>
						<line class="st3" x1="499.9" y1="64.5" x2="-46.4" y2="379.9"/>
						<line class="st3" x1="492.7" y1="52.1" x2="-53.6" y2="367.5"/>
						<line class="st3" x1="485.5" y1="39.6" x2="-60.8" y2="355"/>
						<line class="st3" x1="478.3" y1="27.1" x2="-68" y2="342.5"/>
						<line class="st3" x1="471.1" y1="14.7" x2="-75.2" y2="330.1"/>
						<line class="st3" x1="463.9" y1="2.2" x2="-82.4" y2="317.6"/>
						<line class="st3" x1="456.7" y1="-10.3" x2="-89.6" y2="305.1"/>
						<line class="st3" x1="449.5" y1="-22.8" x2="-96.8" y2="292.6"/>
						<line class="st3" x1="442.3" y1="-35.2" x2="-104" y2="280.2"/>
						<line class="st3" x1="435.1" y1="-47.7" x2="-111.2" y2="267.7"/>
						<line class="st3" x1="427.9" y1="-60.2" x2="-118.4" y2="255.2"/>
						<line class="st3" x1="420.7" y1="-72.6" x2="-125.6" y2="242.8"/>
						<line class="st3" x1="413.5" y1="-85.1" x2="-132.8" y2="230.3"/>
						<line class="st3" x1="406.3" y1="-97.6" x2="-140" y2="217.8"/>
						<line class="st3" x1="399.1" y1="-110.1" x2="-147.2" y2="205.3"/>
						<line class="st3" x1="391.9" y1="-122.5" x2="-154.4" y2="192.9"/>
						<line class="st3" x1="384.7" y1="-135" x2="-161.6" y2="180.4"/>
						<line class="st3" x1="377.5" y1="-147.5" x2="-168.8" y2="167.9"/>
						<line class="st3" x1="370.3" y1="-159.9" x2="-176" y2="155.5"/>
						<line class="st3" x1="363.1" y1="-172.4" x2="-183.2" y2="143"/>
						<line class="st3" x1="355.9" y1="-184.9" x2="-190.4" y2="130.5"/>
						<line class="st3" x1="348.7" y1="-197.3" x2="-197.6" y2="118"/>
						<line class="st3" x1="341.5" y1="-209.8" x2="-204.8" y2="105.6"/>
						<line class="st3" x1="334.3" y1="-222.3" x2="-212" y2="93.1"/>
						<line class="st3" x1="327.1" y1="-234.8" x2="-219.2" y2="80.6"/>
						<line class="st3" x1="319.9" y1="-247.2" x2="-226.4" y2="68.2"/>
					</g>
				</g>
			</g>
		</g>
	</g>
</g>
<g id="Old_Logo">
</g>
<g id="Logo">
	<path class="st4" d="M7.9,252.5l-0.4-0.4 M376.8,55.6c38.8,55.7,46.8,130.4,14.6,195.5c-47.2,95.3-162.8,134.2-258,87
		c-19.8-9.8-37.2-22.6-51.9-37.6c17.9,25.8,42.4,47.5,72.4,62.4c95.3,47.2,210.8,8.2,258-87C449.3,200.6,432.7,112.5,376.8,55.6z
		 M157,80.6c-5.1-5.1-11.5-9.1-19.3-12.1c-7.7-2.9-16.9-4.4-27.5-4.4H89.4c-4.7,0-8.8,3.4-9.5,8L59.7,187.4c-1,6,3.6,11.4,9.5,11.4
		h15.2L102.5,95c0.8-4.7,4.8-8,9.5-8h20.8c10.7,0,19.8,1.5,27.5,4.4c2,0.8,3.9,1.6,5.8,2.5C164,89,160.8,84.5,157,80.6z M244,177.9
		l-0.1,0.8C243.9,178.4,244,178.2,244,177.9L244,177.9z M240.2,93.4c-4.8-9-10.7-16.7-17.5-23.3c-2.3-2.2-4.7-4.2-7.2-6.1
		c-1.3-1-2.5-1.9-3.8-2.8c2,2.9,3.9,6.1,5.7,9.4c5.8,10.9,9,23.9,9.5,39h19.7C244.9,103.8,242.9,98.4,240.2,93.4z M391.9,134.1
		L369,111.3c0.8,1,1.3,2.4,1,3.8l-3,17.3l-3.3,18.8c-0.4,2.3-2.4,3.9-4.7,3.9h-49.7c-4.7,0-8.8,3.3-9.5,8l-25.1,138.4
		c-0.4,2.3-2.3,3.8-4.6,3.8h-43.3c-1.3,0-2.5-0.5-3.3-1.4l22.8,22.8c0.9,0.9,2,1.4,3.3,1.4h43.3c2.3,0,4.2-1.6,4.6-3.8l25.2-138.4
		c0.9-4.6,4.8-8,9.5-8H382c2.3,0,4.2-1.6,4.7-3.9l6.3-36.2C393.1,136.6,392.7,135.2,391.9,134.1z M236.5,155.1h-15.2
		c-1.3,4.4-2.8,8.6-4.7,12.8c-6.9,16.1-16.5,29.8-28.8,41.2s-26.9,20.2-43.6,26.3s-35,9.3-54.8,9.3H3.1c-1.1,0-2.2-0.4-3-1.1
		l22.7,22.7c0.9,0.8,1.9,1.3,3.2,1.3h86.4c19.8,0,37.9-3,54.8-9.3c16.7-6.2,31.3-15,43.6-26.3c12.3-11.3,22-25.1,28.8-41.2
		c1.6-3.9,3.2-7.9,4.4-12.1l0.1-0.8l2-11.4C247.1,160.5,242.5,155.1,236.5,155.1z M244,177.9l-0.1,0.8
		C243.9,178.4,244,178.2,244,177.9L244,177.9z M223.4,303.9l-0.3-0.3 M392.1,134.4l-0.3-0.3"/>
</g>
</svg>
