<?xml version="1.0" encoding="utf-8"?>
<!-- Generator: Adobe Illustrator 25.2.0, SVG Export Plug-In . SVG Version: 6.00 Build 0)  -->
<svg version="1.1" id="Design" xmlns="http://www.w3.org/2000/svg" xmlns:xlink="http://www.w3.org/1999/xlink" x="0px" y="0px"
	 viewBox="0 0 32 32" style="enable-background:new 0 0 32 32;" xml:space="preserve">
<style type="text/css">
	.st0{fill-rule:evenodd;clip-rule:evenodd;fill:#FFFFFF;}
	.st1{fill:#FFFFFF;}
</style>
<g>
	<path class="st0" d="M15.8,0.4C7.3,0.4,0.3,7.5,0.3,16c0,6.8,4.4,12.7,10.5,14.8c0.7,0.2,1.1-0.4,1.1-0.7c0-0.4,0-1.7,0-3
		c-4.2,0.9-5.2-1.8-5.2-1.8C6,23.4,5.1,23,5.1,23c-1.5-0.9,0.2-0.9,0.2-0.9c1.5,0.2,2.4,1.7,2.4,1.7c1.3,2.4,3.7,1.7,4.4,1.3
		c0.2-0.9,0.6-1.7,0.9-2c-3.5-0.4-7-1.7-7-7.8c0-1.7,0.6-3.1,1.7-4.2c-0.2-0.4-0.7-2,0.2-4.1c0,0,1.3-0.4,4.2,1.7
		C13.4,8.2,14.7,8,16,8s2.6,0.2,3.9,0.6c3-2,4.2-1.7,4.2-1.7c0.9,2.2,0.4,3.7,0.2,4.1c0.9,1.1,1.7,2.4,1.7,4.2c0,5.9-3.7,7.2-7,7.6
		c0.6,0.6,1.1,1.5,1.1,3c0,2,0,3.7,0,4.2c0,0.4,0.4,0.9,1.1,0.7c6.1-2,10.5-7.9,10.5-14.8C31.3,7.5,24.5,0.4,15.8,0.4z"/>
	<path class="st1" d="M6.2,22.8c0,0-0.2,0.2-0.2,0c-0.2,0-0.2-0.2-0.2-0.2s0.2-0.2,0.2,0C6.2,22.6,6.2,22.6,6.2,22.8L6.2,22.8z"/>
	<path class="st1" d="M6.8,23.5c0,0-0.2,0-0.4,0c-0.2-0.2-0.2-0.2,0-0.4c0,0,0.2,0,0.4,0C6.9,23.4,6.9,23.4,6.8,23.5L6.8,23.5z"/>
	<path class="st1" d="M7.5,24.5c-0.2,0-0.2,0-0.4-0.2c-0.2-0.2-0.2-0.4,0-0.4c0.2,0,0.2,0,0.4,0.2C7.5,24.1,7.5,24.3,7.5,24.5
		L7.5,24.5z"/>
	<path class="st1" d="M8.2,25.2c0,0.2-0.2,0-0.4,0c-0.2-0.2-0.2-0.4,0-0.4c0-0.2,0.2,0,0.4,0C8.2,25,8.4,25.2,8.2,25.2L8.2,25.2z"/>
	<path class="st1" d="M9.3,25.8c0,0.2-0.2,0.2-0.4,0.2c-0.2,0-0.4-0.2-0.2-0.4c0-0.2,0.2-0.2,0.4-0.2C9.3,25.4,9.5,25.6,9.3,25.8
		L9.3,25.8z"/>
	<path class="st1" d="M10.6,25.8c0,0.2-0.2,0.2-0.4,0.2c-0.2,0-0.4-0.2-0.4-0.2c0-0.2,0.2-0.2,0.4-0.2
		C10.5,25.6,10.6,25.8,10.6,25.8L10.6,25.8z"/>
	<path class="st1" d="M11.9,25.6c0,0.2-0.2,0.2-0.4,0.4c-0.2,0-0.4,0-0.4-0.2s0.2-0.2,0.4-0.4C11.8,25.4,11.9,25.6,11.9,25.6
		L11.9,25.6z"/>
</g>
</svg>
