<?xml version="1.0" encoding="utf-8"?>
<!-- Generator: Adobe Illustrator 25.2.0, SVG Export Plug-In . SVG Version: 6.00 Build 0)  -->
<svg version="1.1" id="Design" xmlns="http://www.w3.org/2000/svg" xmlns:xlink="http://www.w3.org/1999/xlink" x="0px" y="0px"
	 viewBox="0 0 32 32" style="enable-background:new 0 0 32 32;" xml:space="preserve">
<style type="text/css">
	.st0{fill:#FFFFFF;}
</style>
<g>
	<g>
		<path class="st0" d="M22.3,0.3H9.9c-5.3,0-9.4,4.2-9.4,9.4v12.4c0,5.1,4.2,9.4,9.4,9.4h12.4c5.1,0,9.4-4.2,9.4-9.4V9.7
			C31.7,4.4,27.4,0.3,22.3,0.3z M28.8,22.1c0,3.6-2.9,6.5-6.5,6.5H9.9c-3.6,0-6.5-2.9-6.5-6.5V9.7c0-3.6,2.9-6.5,6.5-6.5h12.4
			c3.6,0,6.5,2.9,6.5,6.5V22.1z"/>
		<path class="st0" d="M26.2,7.9c0,1.1-0.8,1.9-1.9,1.9s-1.9-0.8-1.9-1.9S23.2,6,24.3,6S26.2,6.8,26.2,7.9z"/>
		<path class="st0" d="M16.1,8.3c-4.2,0-7.7,3.4-7.7,7.7s3.4,7.7,7.7,7.7c4.2,0,7.7-3.4,7.7-7.7S20.4,8.3,16.1,8.3z M16.1,21
			c-2.8,0-5-2.2-5-5s2.2-5,5-5s5,2.2,5,5S18.9,21,16.1,21z"/>
	</g>
</g>
</svg>
