<?xml version="1.0" encoding="utf-8"?>
<!-- Generator: Adobe Illustrator 25.4.1, SVG Export Plug-In . SVG Version: 6.00 Build 0)  -->
<svg version="1.1" id="Layer_1" xmlns="http://www.w3.org/2000/svg" xmlns:xlink="http://www.w3.org/1999/xlink" x="0px" y="0px"
	 viewBox="0 0 1339.4 500" style="enable-background:new 0 0 1339.4 500;" xml:space="preserve">
<style type="text/css">
	.st0{fill:#DEDEDE;}
	.st1{fill:#C8C8C8;}
</style>
<path class="st0" d="M-1769.2,71.3c10.3,0,18.7,8.3,18.7,18.5c0,10.2-8.4,18.5-18.7,18.5c-10.3,0-18.7-8.3-18.7-18.5
	C-1787.9,79.6-1779.5,71.3-1769.2,71.3 M-1711.9,38.8c-108.9,0-102.1,46.7-102.1,46.7l0.1,48.4h103.9v14.5h-145.1
	c0,0-69.7-7.8-69.7,101s60.8,104.9,60.8,104.9h36.3v-50.5c0,0-1.9-60.2,59.8-60.2h103.1c0,0,57.9,0.9,57.9-55.4V95.1
	C-1606.9,95.1-1598.1,38.8-1711.9,38.8 M-1651.5,428.7c-10.3,0-18.7-8.3-18.7-18.5c0-10.2,8.4-18.5,18.7-18.5
	c10.3,0,18.7,8.3,18.7,18.5C-1632.8,420.4-1641.2,428.7-1651.5,428.7 M-1708.8,461.2c108.9,0,102.1-46.7,102.1-46.7l-0.1-48.4
	h-103.9v-14.5h145.1c0,0,69.7,7.8,69.7-101s-60.8-104.9-60.8-104.9h-36.3v50.5c0,0,1.9,60.2-59.8,60.2h-103.1
	c0,0-57.9-0.9-57.9,55.4v93.2C-1813.8,404.9-1822.6,461.2-1708.8,461.2"/>
<path class="st0" d="M-1223.6,38.8h66v305.7c-63.3,10.1-123.9,16.5-167.2-7.2c-55.8-30.5-60.3-127.6-16.2-170.8
	c22.4-21.9,67.5-37.3,115.9-27.3V43C-1225.2,41-1225.3,39-1223.6,38.8 M-1302.8,245.4c-0.2,40.1,29.8,64,77.7,53.1V192.3
	C-1273.6,177.9-1302.6,207.1-1302.8,245.4 M-1050.6,38.8h-66v67.5h66V38.8z M-255.5,136.3c54.9-5.7,96.4,18,112.9,54.5
	c28.2,62.4-1.6,134-46.9,155c-23.5,10.9-48.2,11.9-70.4,10c-68.8-5.9-112.2-74.5-88-150.7c3.8-11.9,8-19.2,10.3-23
	C-322.7,157.4-297.5,140.7-255.5,136.3 M-258.5,301.4c72,27.4,79.9-126,7.3-111.9C-296.2,198.2-294.8,287.6-258.5,301.4
	 M-843.7,347.3c-54.5,3.1-137.4,21.2-167.2-14.3c-17.5-20.9-15.6-60.8,0-80.4c20.2-25.3,64.3-30.8,104.1-34.4
	c3.6-8.7,1.2-22.9-2.9-28.7c-36.4-9.1-72.6,5-98.3,15.8V155c38.8-17.4,128.6-35.8,155.5,4.3c14.1,21.1,8.8,57.8,8.8,90.4V347.3z
	 M-959.6,277c-18.3,30,27.6,37.2,57.2,28.7v-44.5C-925.1,264.3-951,262.9-959.6,277 M-612,350.2c-3.2-49.9,4.3-111.3,0-152.1
	c-8.8-82.9-130.5-64.5-198-47.4v199.5h66V193.8c16.6-4.3,44.1-8.7,55.7,0c14.8,11,10.3,45.8,10.3,73.2v83.3H-612 M-348,145
	c-5.9,17.2-14.5,31.8-22,47.4c-6.8,1.5-12.7-2.7-16.1,0c-1.5,70,15.2,164.8-13.2,215.3c-17.1,30.4-48.6,49.9-96.8,53.1
	c-35.1,2.4-62.3-3.3-88-12.9v-60.3c30.1,17.2,106.2,31.2,127.6-4.3c6.3-10.4,5.9-21.3,8.8-37.3c-13.8,0.7-27.2,7-44,7.2
	c-69.2,0.9-112-53-95.3-127.8c6.4-28.9,23.8-52.2,46.9-66C-491.9,130.6-417.9,132.8-348,145 M-513.7,281.3
	c11.1,17.6,41.2,24.2,66,12.9c-1.4-33.6-1.8-68-1.5-103.3C-506.2,176.1-540.2,239.4-513.7,281.3 M-1116.4,140.4
	c0,32.9-0.2,76.3-0.2,113.6c0,37.8,1.1,76.6-7.3,103.3c-9.7,30.8-33.6,42.2-58.7,57.4c10.8,3.2,20.4,9.6,30.8,14.4
	c7.9,3.6,25.4,13.3,32.3,12.9c6.8-0.4,18.7-9.8,24.9-14.3c7.4-5.5,16.4-13.3,20.5-18.7c21.2-27.2,20.6-72.4,23.4-129.2
	c0-57.8,0-92,0.1-139.5L-1116.4,140.4z"/>
<path class="st0" d="M-2209.7,250c0-24.4-19.8-44.2-44.2-44.2c-24.4,0-44.2,19.8-44.2,44.2c0,24.4,19.8,44.2,44.2,44.2
	C-2229.5,294.3-2209.7,274.5-2209.7,250 M-2038,250c-0.1,15.2-22.3,34.4-56.5,48.9c-8.3,3.6-17.4,6.8-26.8,9.8
	c-5.5-19-12.7-38.7-21.7-58.9c8.9-20.1,16.1-39.7,21.5-58.6c9.6,3,18.6,6.3,27.2,9.9C-2060.2,215.7-2038,234.9-2038,250
	 M-2142.5,185.5c-3.6,12.5-8,25.4-13,38.2c-4-7.7-8.1-15.5-12.7-23.2c-4.4-7.7-9.2-15.3-13.9-22.6
	C-2168.4,179.9-2155.2,182.5-2142.5,185.5 M-2186.9,211.5c7.4,12.7,14,25.5,20.1,38.5c-6.1,13-12.7,25.9-20,38.6
	c-7.5,13-15.3,25.4-23.3,36.9c-14.4,1.2-29,1.9-43.7,1.9c-14.6,0-29.2-0.7-43.5-1.9c-8-11.5-15.8-23.8-23.4-36.7
	c-7.4-12.7-14-25.5-20.1-38.5c6-13,12.8-25.9,20-38.6c7.5-13,15.3-25.4,23.3-36.9c14.4-1.3,29-1.9,43.7-1.9
	c14.6,0,29.2,0.7,43.5,1.8C-2202.3,186.2-2194.4,198.5-2186.9,211.5 M-2227.2,151.9c-8.7-0.4-17.6-0.7-26.6-0.7
	c-9.1,0-18.1,0.2-26.9,0.7c8.7-11.3,17.7-21.7,26.6-30.9C-2245.1,130.2-2236.1,140.6-2227.2,151.9 M-2269.3,105.8
	c-13.6,14.2-27.1,30.4-40,48.3c-21.9,2.3-42.5,5.9-61.5,10.6c-2.2-9.7-3.9-19-5-28c-4.6-36.9,1.1-65.7,14.1-73.3
	c2.9-1.8,6.7-2.5,11.1-2.5v-0.1C-2330.6,60.7-2300.9,76.7-2269.3,105.8 M-2364.6,250.3c-8.9,20.1-16.1,39.7-21.4,58.6
	c-9.6-3-18.7-6.3-27.1-9.9c-34.2-14.6-56.4-33.7-56.4-48.9c0-15.2,22.1-34.4,56.4-48.9c8.3-3.6,17.4-6.8,26.8-9.8
	C-2380.9,210.3-2373.6,230-2364.6,250.3 M-2352.1,224c-5.2-13-9.7-25.9-13.3-38.5c12.7-3,26-5.6,39.8-7.6
	c-4.7,7.4-9.5,15.1-13.9,22.9C-2344,208.6-2348.2,216.3-2352.1,224 M-2352.1,276.4c4,7.7,8.1,15.5,12.7,23.2
	c4.6,7.7,9.2,15.3,13.9,22.6c-13.7-2-27-4.6-39.6-7.7C-2361.6,302.1-2357.1,289.2-2352.1,276.4 M-2375.5,364
	c1.1-9.1,2.8-18.6,4.9-28.4c18.9,4.6,39.6,8.2,61.4,10.5c13,17.9,26.6,34.1,40.2,48.4c-31.5,29.3-61.1,45.3-81.2,45.3
	c-4.4-0.1-8-1-10.9-2.6C-2374.3,429.6-2380,400.9-2375.5,364 M-2253.6,379.2c-9-9.3-18-19.6-26.9-31c8.7,0.4,17.6,0.7,26.6,0.7
	c9.1,0,18.1-0.2,26.9-0.7C-2235.7,359.5-2244.7,369.9-2253.6,379.2 M-2182,322.2c4.7-7.4,9.5-15.1,13.9-22.9
	c4.4-7.7,8.6-15.6,12.6-23.3c5.2,13,9.7,25.9,13.3,38.5C-2154.9,317.5-2168.2,320.1-2182,322.2 M-2238.2,394.2
	c13.6-14.2,27.1-30.4,40-48.3c21.9-2.3,42.5-5.9,61.5-10.6c2.2,9.8,4,19.2,5,28.1c4.6,36.9-1.1,65.7-14.1,73.3
	c-2.9,1.8-6.7,2.5-11.1,2.5C-2177,439.3-2206.7,423.3-2238.2,394.2 M-2116.3,170.4c13.9-61.5,7.7-110.4-19.5-126.1
	c-6.3-3.7-13.6-5.4-21.6-5.4v21.5c0,0-0.1,0-0.1,0v0.1c4.4,0,8,0.9,11,2.5c13.1,7.5,18.9,36.2,14.4,73.2c-1.1,9.1-2.8,18.7-4.9,28.5
	c-18.9-4.7-39.7-8.2-61.4-10.6c-13.1-17.9-26.6-34.1-40.2-48.3c31.5-29.3,61-45.3,81.1-45.3V38.9c0,0,0.1,0,0.1,0v-0.1
	c-26.6,0-61.4,19-96.6,51.8c-35.2-32.7-70-51.4-96.6-51.4v0.1c-8.1,0-15.5,1.8-21.9,5.4c-27.2,15.7-33.3,64.5-19.3,125.8
	c-60.1,18.6-99.3,48.2-99.3,79.6c0,31.4,39.4,61.2,99.7,79.7c-13.9,61.5-7.7,110.4,19.5,126.1c6.3,3.7,13.6,5.4,21.7,5.4
	c26.6,0,61.4-19,96.6-51.8c35.2,32.7,70,51.5,96.6,51.5c8.1,0,15.5-1.8,21.9-5.4c27.2-15.7,33.3-64.5,19.3-125.8
	c59.9-18.5,99.1-48.3,99.1-79.6C-2016.6,218.6-2055.9,188.9-2116.3,170.4"/>
<path class="st0" d="M1236,127.6l51.9,0.3c0,0-96.5,133.7-104.4,144.6c-2.6,3.5-6.4,7.3-8.4,12c-5,11.9-10.1,37.8-10.1,37.8
	l-47.5,0.2c0,0,7.4-27.1,7.1-41.5c-0.3-12.6-6.6-25.2-10.1-37.9c-3.6-12.8-8.4-37.9-8.4-37.9h48.8l6.7,27.5L1236,127.6z
	 M1137.7,155.8c-10.4-6.4-35.3-3.6-56.5-3.6h-32.9c-20.6,0-32.8-1.4-34.9,6.7c-6.4,25.1-33.7,163.5-33.7,163.5h43.8l28.6-127.3h23.6
	c27.3,0,77.4-0.8,77.4-0.8S1147.3,161.7,1137.7,155.8 M975.1,184.9c-1.4-5.1-2.6-12-5.1-15.5c-9.2-13.1-28-17.6-40.4-18.9
	c-33.1-3.5-60.6,5.6-75.8,17.2c-4.6,3.5-8.4,6.3-11.8,10.3c-1.2,1.4-2.5,3.1-3.6,4.7c-1,1.4-2.1,2.4-3.1,3.9
	c-1.4,2.2-2.9,6.3-4.6,9.9c-1.4,2.9-2.7,6.3-3.8,9c-9.1,23.3-18.4,66.8-10.1,89.5c1.2,3.4,4,7.6,4.9,8.9c1.2,1.6,2.3,3.5,3.5,4.9
	c4.6,5,11.3,8.6,18.5,10.3c36.5,8.9,109.4,5.2,109.4,5.2l8.9-40.5c0,0-51.6,2.4-76.3-0.8c-3.7-0.5-14-1-19.2-5.7
	c-4.6-4.1-10-13.8-6-20.1c2.8-4.5,14.1-3.2,23.6-3.5c30.4-0.9,85.9,0,85.9,0S980.7,205.4,975.1,184.9 M868.6,217.4
	c0,0-0.7-28.8,37.3-27.6c13.5,0.4,18.2,2.3,23.3,10.4c6,9.5,4.6,17.6,4.6,17.6L868.6,217.4z M744,281.1c0,0-16.8,0.1-21.9,0
	c-16.2-0.4-21.5-0.9-25.3-8.6c-4-8.1-0.2-18.3,1.7-29.2c5.2-30.5,17.6-91.5,17.6-91.5l-44,0.4c0,0-8.4,39.2-12.4,58.4
	c-5.6,27.1-17.6,66.9-5,91.2c12.9,25,43.3,20.7,77.5,20.7h48.8c12.1-55.9,35.7-170.6,35.7-170.6l-42.5,0.2L744,281.1z M634.6,171
	c-2.6-19.3-14.9-40.2-28.3-48.9c-0.5-0.3-3-2.3-3.7-2.7c-10-5.9-25.9-10.9-37-12c-57.3-6-91.5,20-111.1,55.1
	c-7.7,13.8-12.9,28.8-16.8,44.7c-4.4,17.7-7.6,39.1-5.1,58.5c1.5,11.7,7.8,28.2,16.9,37.9c22.3,23.7,66,20.7,112.8,20.7
	c14.3,0,48.7-0.3,59.1-0.6c3.4-0.1,13-40.1,12.1-41.4c-0.8-1-12.3,0.4-25.4-0.8C620.8,246.8,639.4,207,634.6,171 M575.6,234.6
	c-4.2,15.4-8.4,30.9-13.5,44.7c-34-0.2-65.6,4.5-75.8-17.2c-5.7-12.3-3.1-29,0-44.8c4.2-21.2,8.3-36.7,20.2-49.9
	c9.2-10.2,32.5-22.7,57.3-13.8c8.2,3,21,17.1,21.9,32.7C586.6,201,580.1,218.5,575.6,234.6 M427.7,152.2c-16.6,0-30.6-0.2-45.7-0.2
	c-3.7,12.5-6.4,26.9-10.1,41.3H419C422,180.3,424.8,165.4,427.7,152.2 M370.2,205.4c-2.3,7.7-14.5,59.9-18.5,79.2
	c-7,33.4-7.9,68.1-43.8,63.7c-3.5,12.9-7.8,30.2-11.7,44.6c14.7,0.3,28.3,1.5,40.3,0.1c7.4-0.8,20.7-4.1,23.6-6.9
	c1.2-1.1,2-0.6,3.4-1.7c15.6-12.5,19.5-29.7,25.3-53.3c9.2-37.8,21-92,26.9-125.6H370.2 M264.1,293.1
	c-14.6,15.1-38.5,25.6-57.3,27.5c-77.9,8.2-158.1-63.2-132-146.4l1-3.3c-0.6,0,4.4-7.7,3.8-7.7c-36.1,35.7-33,83.5-15.6,117.9
	c12.1,24,34.3,46.4,60.6,58.5c12.2,5.6,30.9,10.8,50.5,10.3c42-0.9,71.4-21.2,88-54.2L264.1,293.1 M217,258.7
	c-43.8-0.3-93.1-40.4-87.6-96.4c0.5-4.8,2.3-12.4,7.4-22.2c-14.6,18.7-23.4,34.2-20.9,60c3.4,35.5,36.2,71,70.7,75.7
	c41.2,5.6,71.9-12.1,82.5-39.6C257.1,249.5,236.6,258.9,217,258.7 M267.2,189.2c-26.3,18.3-42.6,12.2-50.3,9.9
	c-1.7-0.5-5.6-2.3-9.3-4.6c-8.2-5-12.2-7.3-18.5-16.7c-3.5-5.2-7-13.4-8.1-18.1c-1.9-7.8-1.4-19.8,2.2-30.1
	c-11.9,10.8-13.7,31.8-9.8,45.7c0.5,1.7,3.3,8.7,4.9,11.2c10.3,16.9,29.9,31.8,60.6,25.1C246.6,209.9,264.1,196.4,267.2,189.2"/>
<path id="Logotype" class="st1" d="M2537.6,203.9h-71.1v7.5c22.2,0,25.8,4.8,25.8,33v50.8c0,28.2-3.6,33.3-25.8,33.3
	c-17.1-2.4-28.6-11.5-44.5-29l-18.3-19.8c24.6-4.4,37.7-19.9,37.7-37.3c0-21.8-18.7-38.5-53.6-38.5h-69.9v7.5
	c22.2,0,25.8,4.8,25.8,33v50.8c0,28.2-3.6,33.3-25.8,33.3v7.5h79v-7.5c-22.2,0-25.8-5.2-25.8-33.3V281h6.7l44.1,55.2h115.5
	c56.8,0,81.4-30.2,81.4-66.3C2619,233.7,2594.4,203.9,2537.6,203.9z M2371.3,268.7v-52.8h16.3c17.9,0,25.8,12.3,25.8,26.6
	c0,13.9-7.9,26.2-25.8,26.2H2371.3z M2538.8,323.9h-2.8c-14.3,0-16.3-3.6-16.3-21.8v-86.2c0,0,17.5,0,19.1,0
	c41.3,0,48.8,30.2,48.8,53.6C2587.7,293.7,2580.1,323.9,2538.8,323.9z M2096.9,283.4l27.4-81c7.9-23.4,4.4-30.2-21-30.2v-7.9h74.6
	v7.9c-25,0-31,6-40.9,34.9l-45.3,135.8h-5.2l-40.5-124.3l-41.3,124.3h-5.2l-44.1-135.8c-9.5-29-15.9-34.9-38.9-34.9v-7.9h88.1v7.9
	c-23.4,0-29.8,5.6-21.4,30.2l26.6,81l40.1-119.1h7.5L2096.9,283.4z M2231.9,341.3c-43.7,0-79.4-32.2-79.4-71.5
	c0-38.9,35.7-71.1,79.4-71.1c43.7,0,79.4,32.2,79.4,71.1C2311.3,309.2,2275.6,341.3,2231.9,341.3z M2231.9,211.1
	c-36.5,0-49.2,33-49.2,58.8c0,26.2,12.7,58.8,49.2,58.8c36.9,0,49.6-32.6,49.6-58.8C2281.5,244,2268.8,211.1,2231.9,211.1z
	 M2717.1,328.2v7.9h-90.9v-7.9c26.6,0,31.4-6.7,31.4-46.5v-63.5c0-39.7-4.8-46.1-31.4-46.1v-7.9h82.2c40.9,0,63.5,21,63.5,49.2
	c0,27.4-22.6,48.8-63.5,48.8h-22.6v19.5C2685.7,321.5,2690.5,328.2,2717.1,328.2z M2708.3,178.5h-22.6v69.1h22.6
	c22.2,0,32.6-15.5,32.6-34.1C2740.9,194.4,2730.6,178.5,2708.3,178.5z M3044.6,298.8l-2,7.1c-3.6,13.1-7.9,17.9-36.1,17.9h-5.6
	c-20.6,0-24.2-4.8-24.2-33v-18.3c31,0,33.4,2.8,33.4,23.4h7.5v-59.2h-7.5c0,20.6-2.4,23.4-33.4,23.4v-44.5h21.8
	c28.2,0,32.6,4.8,36.1,17.9l2,7.5h6.3l-2.8-37.3h-116.7v7.5c22.2,0,25.8,4.8,25.8,33v50.8c0,25.8-3,32.3-20.6,33.2
	c-16.7-2.5-28.1-11.6-43.7-28.8l-18.3-19.8c24.6-4.4,37.7-19.9,37.7-37.3c0-21.8-18.7-38.5-53.6-38.5H2781v7.5
	c22.2,0,25.8,4.8,25.8,33v50.8c0,28.2-3.6,33.3-25.8,33.3v7.5h79v-7.5c-22.2,0-25.8-5.2-25.8-33.3V281h6.7l44.1,55.2h163.2l2.4-37.3
	H3044.6z M2834.2,268.7v-52.8h16.3c17.9,0,25.8,12.3,25.8,26.6c0,13.9-7.9,26.2-25.8,26.2H2834.2z M3125.2,341.3
	c-15.9,0-29.8-8.3-35.7-13.5c-2,2-5.6,7.9-6.3,13.5h-7.5v-54.8h7.9c3.2,26.2,21.4,41.7,44.9,41.7c12.7,0,23-7.1,23-19.1
	c0-10.3-9.1-18.3-25.4-25.8l-22.6-10.7c-15.9-7.5-27.8-20.7-27.8-38.1c0-19.1,17.9-35.3,42.5-35.3c13.1,0,24.2,4.8,31,10.3
	c2-1.6,4-6,5.2-10.7h7.5v46.9h-8.3c-2.8-18.7-13.1-34.1-34.1-34.1c-11.1,0-21.4,6.4-21.4,16.3c0,10.3,8.3,15.9,27.4,24.6l21.8,10.7
	c19.1,9.1,26.6,23.8,26.6,35.7C3173.7,323.9,3151.8,341.3,3125.2,341.3z M3245.3,341.3c-15.9,0-29.8-8.3-35.7-13.5
	c-2,2-5.6,7.9-6.3,13.5h-7.5v-54.8h7.9c3.2,26.2,21.4,41.7,44.9,41.7c12.7,0,23-7.1,23-19.1c0-10.3-9.1-18.3-25.4-25.8l-22.6-10.7
	c-15.9-7.5-27.8-20.7-27.8-38.1c0-19.1,17.9-35.3,42.5-35.3c13.1,0,24.2,4.8,31,10.3c2-1.6,4-6,5.2-10.7h7.5v46.9h-8.3
	c-2.8-18.7-13.1-34.1-34.1-34.1c-11.1,0-21.4,6.4-21.4,16.3c0,10.3,8.3,15.9,27.4,24.6l21.8,10.7c19.1,9.1,26.6,23.8,26.6,35.7
	C3293.7,323.9,3271.9,341.3,3245.3,341.3z M1720.1,82.1c22.7,0,44.7,4.4,65.4,13.2c9.9,4.2,19.5,9.4,28.5,15.5
	c8.9,6,17.3,12.9,24.9,20.5c7.6,7.6,14.5,16,20.5,24.9c6.1,9,11.3,18.6,15.5,28.5c8.8,20.7,13.2,42.7,13.2,65.4s-4.4,44.7-13.2,65.4
	c-4.2,9.9-9.4,19.5-15.5,28.5c-6,8.9-12.9,17.3-20.5,24.9c-7.6,7.6-16,14.5-24.9,20.5c-9,6.1-18.6,11.3-28.5,15.5
	c-20.7,8.8-42.7,13.2-65.4,13.2s-44.7-4.4-65.4-13.2c-9.9-4.2-19.5-9.4-28.5-15.5c-8.9-6-17.3-12.9-24.9-20.5
	c-7.6-7.6-14.5-16-20.5-24.9c-6.1-9-11.3-18.6-15.5-28.5c-8.8-20.7-13.2-42.7-13.2-65.4s4.4-44.7,13.2-65.4
	c4.2-9.9,9.4-19.5,15.5-28.5c6-8.9,12.9-17.3,20.5-24.9c7.6-7.6,16-14.5,24.9-20.5c9-6.1,18.6-11.3,28.5-15.5
	C1675.5,86.5,1697.5,82.1,1720.1,82.1 M1720.1,71.3c-98.7,0-178.7,80-178.7,178.7c0,98.7,80,178.7,178.7,178.7
	c98.7,0,178.7-80,178.7-178.7C1898.8,151.3,1818.8,71.3,1720.1,71.3L1720.1,71.3z M1571.2,250c0,58.9,34.2,109.9,83.9,134l-71-194.6
	C1575.9,207.9,1571.2,228.4,1571.2,250z M1820.7,242.5c0-18.4-6.6-31.1-12.3-41.1c-7.5-12.3-14.6-22.7-14.6-34.9
	c0-13.7,10.4-26.4,25-26.4c0.7,0,1.3,0.1,1.9,0.1c-26.5-24.3-61.8-39.1-100.5-39.1c-52,0-97.8,26.7-124.4,67.1
	c3.5,0.1,6.8,0.2,9.6,0.2c15.6,0,39.7-1.9,39.7-1.9c8-0.5,9,11.3,1,12.3c0,0-8.1,0.9-17,1.4l54.2,161.3l32.6-97.7l-23.2-63.6
	c-8-0.5-15.6-1.4-15.6-1.4c-8-0.5-7.1-12.7,0.9-12.3c0,0,24.6,1.9,39.2,1.9c15.6,0,39.7-1.9,39.7-1.9c8-0.5,9,11.3,0.9,12.3
	c0,0-8.1,0.9-17,1.4l53.8,160l15.4-48.7C1816.7,270.3,1820.7,255.2,1820.7,242.5z M1722.8,263l-44.7,129.8
	c13.3,3.9,27.4,6.1,42.1,6.1c17.3,0,34-3,49.4-8.4c-0.4-0.6-0.8-1.3-1.1-2.1L1722.8,263z M1850.8,178.6c0.6,4.7,1,9.8,1,15.3
	c0,15.1-2.8,32.1-11.3,53.3L1795,378.7c44.3-25.8,74-73.8,74-128.7C1869,224.1,1862.4,199.8,1850.8,178.6z"/>
</svg>
