<?xml version="1.0" encoding="utf-8"?>
<!-- Generator: Adobe Illustrator 25.2.0, SVG Export Plug-In . SVG Version: 6.00 Build 0)  -->
<svg version="1.1" id="Design" xmlns="http://www.w3.org/2000/svg" xmlns:xlink="http://www.w3.org/1999/xlink" x="0px" y="0px"
	 viewBox="0 0 32 32" style="enable-background:new 0 0 32 32;" xml:space="preserve">
<style type="text/css">
	.st0{fill:#FFFFFF;}
</style>
<g>
	<g>
		<g>
			<g>
				<path class="st0" d="M31.7,18.8V30c0,0.2-0.2,0.6-0.6,0.6h-5.8c-0.4,0-0.6-0.2-0.6-0.6V19.5c0-2.8-0.9-4.7-3.4-4.7
					c-1.9,0-3,1.3-3.6,2.4c-0.2,0.4-0.2,0.9-0.2,1.7v10.9c0,0.2-0.2,0.6-0.6,0.6h-5.8c-0.2,0-0.6-0.2-0.6-0.6c0-2.8,0-16.3,0-19.5
					c0-0.2,0.2-0.6,0.6-0.6h5.8c0.2,0,0.6,0.2,0.6,0.6v2.4l0,0l0,0l0,0c0.9-1.3,2.4-3.4,6.2-3.4C28.5,9.6,31.7,12.6,31.7,18.8z"/>
				<path class="st0" d="M7.4,10.5V30c0,0.2-0.2,0.6-0.6,0.6H1c-0.4,0-0.6-0.2-0.6-0.6V10.5C0.5,10.3,0.6,10,1,10h5.8
					C7.2,10.2,7.4,10.3,7.4,10.5z"/>
			</g>
		</g>
	</g>
	<g>
		<path class="st0" d="M7.4,4c0,2.1-1.7,3.6-3.6,3.6C1.8,7.5,0.3,5.8,0.3,4s1.5-3.7,3.6-3.7C5.7,0.2,7.4,1.9,7.4,4z"/>
	</g>
</g>
<g>
	<path d="M26.9,40.9c-0.3,0.4-0.8,1-1.5,1.6v0c0,1.3-0.2,2.5-0.7,3.6c-1.6,3.5-4.3,5.2-8,5.2c-1.4,0-2.8-0.4-4.4-1.3v0h0l0.4,0H13
		c1.4,0,2.6-0.4,3.6-1.2v-0.1c-0.3,0-0.7-0.1-1.1-0.2c-0.8-0.4-1.3-1-1.6-1.8l0.6,0.1l0.7-0.1v-0.1h-0.1c-1.5-0.5-2.2-1.5-2.2-2.9
		c0.5,0.2,0.9,0.3,1.2,0.3h0.1c-0.8-0.7-1.2-1.5-1.2-2.5c0-0.5,0.1-0.9,0.4-1.5c0.5,0.5,1,1,1.6,1.5c1.7,1.1,3.2,1.6,4.5,1.6h0
		l0.1,0l-0.1-0.6c0-0.4,0.1-0.8,0.2-1.1c0.7-1.3,1.6-1.9,2.8-1.9c0.8,0,1.5,0.3,2.2,0.9c0.4,0,1-0.2,1.8-0.7h0
		c0,0.4-0.4,0.9-1.1,1.6C25.6,41.3,26.1,41.1,26.9,40.9L26.9,40.9z"/>
</g>
</svg>
