<?xml version="1.0" encoding="utf-8"?>
<!-- Generator: Adobe Illustrator 25.4.1, SVG Export Plug-In . SVG Version: 6.00 Build 0)  -->
<svg version="1.1" id="Layer_1" xmlns="http://www.w3.org/2000/svg" xmlns:xlink="http://www.w3.org/1999/xlink" x="0px" y="0px"
	 viewBox="0 0 500 500" style="enable-background:new 0 0 500 500;" xml:space="preserve">
<style type="text/css">
	.st0{fill:#DEDEDE;}
	.st1{fill:#C8C8C8;}
</style>
<path class="st0" d="M734.6,71.3c10.3,0,18.7,8.3,18.7,18.5c0,10.2-8.4,18.5-18.7,18.5c-10.3,0-18.7-8.3-18.7-18.5
	C715.9,79.6,724.3,71.3,734.6,71.3 M791.9,38.8c-108.9,0-102.1,46.7-102.1,46.7l0.1,48.4h103.9v14.5H648.7c0,0-69.7-7.8-69.7,101
	s60.8,104.9,60.8,104.9h36.3v-50.5c0,0-1.9-60.2,59.8-60.2H839c0,0,57.9,0.9,57.9-55.4V95.1C896.9,95.1,905.7,38.8,791.9,38.8
	 M852.3,428.7c-10.3,0-18.7-8.3-18.7-18.5c0-10.2,8.4-18.5,18.7-18.5c10.3,0,18.7,8.3,18.7,18.5C871,420.4,862.6,428.7,852.3,428.7
	 M795,461.2c108.9,0,102.1-46.7,102.1-46.7l-0.1-48.4H793v-14.5h145.1c0,0,69.7,7.8,69.7-101s-60.8-104.9-60.8-104.9h-36.3v50.5
	c0,0,1.9,60.2-59.8,60.2H747.9c0,0-57.9-0.9-57.9,55.4v93.2C690,404.9,681.2,461.2,795,461.2"/>
<path class="st0" d="M1280.2,38.8h66v305.7c-63.3,10.1-123.9,16.5-167.2-7.2c-55.8-30.5-60.3-127.6-16.2-170.8
	c22.4-21.9,67.5-37.3,115.9-27.3V43C1278.6,41,1278.5,39,1280.2,38.8 M1201,245.4c-0.2,40.1,29.8,64,77.7,53.1V192.3
	C1230.2,177.9,1201.2,207.1,1201,245.4 M1453.2,38.8h-66v67.5h66V38.8z M2248.3,136.3c54.9-5.7,96.4,18,112.9,54.5
	c28.2,62.4-1.6,134-46.9,155c-23.5,10.9-48.2,11.9-70.4,10c-68.8-5.9-112.2-74.5-88-150.7c3.8-11.9,8-19.2,10.3-23
	C2181,157.4,2206.3,140.7,2248.3,136.3 M2245.3,301.4c72,27.4,79.9-126,7.3-111.9C2207.6,198.2,2209,287.6,2245.3,301.4
	 M1660.1,347.3c-54.5,3.1-137.4,21.2-167.2-14.3c-17.5-20.9-15.6-60.8,0-80.4c20.2-25.3,64.3-30.8,104.1-34.4
	c3.6-8.7,1.2-22.9-2.9-28.7c-36.4-9.1-72.6,5-98.3,15.8V155c38.8-17.4,128.6-35.8,155.5,4.3c14.1,21.1,8.8,57.8,8.8,90.4V347.3z
	 M1544.2,277c-18.3,30,27.6,37.2,57.2,28.7v-44.5C1578.7,264.3,1552.8,262.9,1544.2,277 M1891.8,350.2c-3.2-49.9,4.3-111.3,0-152.1
	c-8.8-82.9-130.5-64.5-198-47.4v199.5h66V193.8c16.6-4.3,44.1-8.7,55.7,0c14.8,11,10.3,45.8,10.3,73.2v83.3H1891.8 M2155.8,145
	c-5.9,17.2-14.5,31.8-22,47.4c-6.8,1.5-12.7-2.7-16.1,0c-1.5,70,15.2,164.8-13.2,215.3c-17.1,30.4-48.6,49.9-96.8,53.1
	c-35.1,2.4-62.3-3.3-88-12.9v-60.3c30.1,17.2,106.2,31.2,127.6-4.3c6.3-10.4,5.9-21.3,8.8-37.3c-13.8,0.7-27.2,7-44,7.2
	c-69.2,0.9-112-53-95.3-127.8c6.4-28.9,23.8-52.2,46.9-66C2011.9,130.6,2085.9,132.8,2155.8,145 M1990.1,281.3
	c11.1,17.6,41.2,24.2,66,12.9c-1.4-33.6-1.8-68-1.5-103.3C1997.6,176.1,1963.6,239.4,1990.1,281.3 M1387.4,140.4
	c0,32.9-0.2,76.3-0.2,113.6c0,37.8,1.1,76.6-7.3,103.3c-9.7,30.8-33.6,42.2-58.7,57.4c10.8,3.2,20.4,9.6,30.8,14.4
	c7.9,3.6,25.4,13.3,32.3,12.9c6.8-0.4,18.7-9.8,24.9-14.3c7.4-5.5,16.4-13.3,20.5-18.7c21.2-27.2,20.6-72.4,23.4-129.2
	c0-57.8,0-92,0.1-139.5L1387.4,140.4z"/>
<path class="st0" d="M294.1,250c0-24.4-19.8-44.2-44.2-44.2s-44.2,19.8-44.2,44.2c0,24.4,19.8,44.2,44.2,44.2S294.1,274.5,294.1,250
	 M465.8,250c-0.1,15.2-22.3,34.4-56.5,48.9c-8.3,3.6-17.4,6.8-26.8,9.8c-5.5-19-12.7-38.7-21.7-58.9c8.9-20.1,16.1-39.7,21.5-58.6
	c9.6,3,18.6,6.3,27.2,9.9C443.6,215.7,465.8,234.9,465.8,250 M361.3,185.5c-3.6,12.5-8,25.4-13,38.2c-4-7.7-8.1-15.5-12.7-23.2
	c-4.4-7.7-9.2-15.3-13.9-22.6C335.4,179.9,348.6,182.5,361.3,185.5 M316.9,211.5c7.4,12.7,14,25.5,20.1,38.5
	c-6.1,13-12.7,25.9-20,38.6c-7.5,13-15.3,25.4-23.3,36.9c-14.4,1.2-29,1.9-43.7,1.9c-14.6,0-29.2-0.7-43.5-1.9
	c-8-11.5-15.8-23.8-23.4-36.7c-7.4-12.7-14-25.5-20.1-38.5c6-13,12.8-25.9,20-38.6c7.5-13,15.3-25.4,23.3-36.9
	c14.4-1.3,29-1.9,43.7-1.9c14.6,0,29.2,0.7,43.5,1.8C301.5,186.2,309.4,198.5,316.9,211.5 M276.6,151.9c-8.7-0.4-17.6-0.7-26.6-0.7
	c-9.1,0-18.1,0.2-26.9,0.7c8.7-11.3,17.7-21.7,26.6-30.9C258.7,130.2,267.7,140.6,276.6,151.9 M234.5,105.8
	c-13.6,14.2-27.1,30.4-40,48.3c-21.9,2.3-42.5,5.9-61.5,10.6c-2.2-9.7-3.9-19-5-28c-4.6-36.9,1.1-65.7,14.1-73.3
	c2.9-1.8,6.7-2.5,11.1-2.5v-0.1C173.2,60.7,202.9,76.7,234.5,105.8 M139.2,250.3c-8.9,20.1-16.1,39.7-21.4,58.6
	c-9.6-3-18.7-6.3-27.1-9.9c-34.2-14.6-56.4-33.7-56.4-48.9c0-15.2,22.1-34.4,56.4-48.9c8.3-3.6,17.4-6.8,26.8-9.8
	C122.9,210.3,130.2,230,139.2,250.3 M151.7,224c-5.2-13-9.7-25.9-13.3-38.5c12.7-3,26-5.6,39.8-7.6c-4.7,7.4-9.5,15.1-13.9,22.9
	C159.8,208.6,155.6,216.3,151.7,224 M151.7,276.4c4,7.7,8.1,15.5,12.7,23.2c4.6,7.7,9.2,15.3,13.9,22.6c-13.7-2-27-4.6-39.6-7.7
	C142.2,302.1,146.6,289.2,151.7,276.4 M128.3,364c1.1-9.1,2.8-18.6,4.9-28.4c18.9,4.6,39.6,8.2,61.4,10.5
	c13,17.9,26.6,34.1,40.2,48.4c-31.5,29.3-61.1,45.3-81.2,45.3c-4.4-0.1-8-1-10.9-2.6C129.5,429.6,123.8,400.9,128.3,364
	 M250.2,379.2c-9-9.3-18-19.6-26.9-31c8.7,0.4,17.6,0.7,26.6,0.7c9.1,0,18.1-0.2,26.9-0.7C268.1,359.5,259.1,369.9,250.2,379.2
	 M321.8,322.2c4.7-7.4,9.5-15.1,13.9-22.9c4.4-7.7,8.6-15.6,12.6-23.3c5.2,13,9.7,25.9,13.3,38.5
	C348.9,317.5,335.6,320.1,321.8,322.2 M265.6,394.2c13.6-14.2,27.1-30.4,40-48.3c21.9-2.3,42.5-5.9,61.5-10.6c2.2,9.8,4,19.2,5,28.1
	c4.6,36.9-1.1,65.7-14.1,73.3c-2.9,1.8-6.7,2.5-11.1,2.5C326.8,439.3,297.1,423.3,265.6,394.2 M387.5,170.4
	c13.9-61.5,7.7-110.4-19.5-126.1c-6.3-3.7-13.6-5.4-21.6-5.4v21.5c0,0-0.1,0-0.1,0v0.1c4.4,0,8,0.9,11,2.5
	c13.1,7.5,18.9,36.2,14.4,73.2c-1.1,9.1-2.8,18.7-4.9,28.5c-18.9-4.7-39.7-8.2-61.4-10.6c-13.1-17.9-26.6-34.1-40.2-48.3
	c31.5-29.3,61-45.3,81.1-45.3V38.9c0,0,0.1,0,0.1,0v-0.1c-26.6,0-61.4,19-96.6,51.8c-35.2-32.7-70-51.4-96.6-51.4v0.1
	c-8.1,0-15.5,1.8-21.9,5.4c-27.2,15.7-33.3,64.5-19.3,125.8C52,189,12.8,218.7,12.8,250c0,31.4,39.4,61.2,99.7,79.7
	c-13.9,61.5-7.7,110.4,19.5,126.1c6.3,3.7,13.6,5.4,21.7,5.4c26.6,0,61.4-19,96.6-51.8c35.2,32.7,70,51.5,96.6,51.5
	c8.1,0,15.5-1.8,21.9-5.4c27.2-15.7,33.3-64.5,19.3-125.8c59.9-18.5,99.1-48.3,99.1-79.6C487.2,218.6,447.9,188.9,387.5,170.4"/>
<path class="st0" d="M3739.8,127.6l51.9,0.3c0,0-96.5,133.7-104.4,144.6c-2.6,3.5-6.4,7.3-8.4,12c-5,11.9-10.1,37.8-10.1,37.8
	l-47.5,0.2c0,0,7.4-27.1,7.1-41.5c-0.3-12.6-6.6-25.2-10.1-37.9c-3.6-12.8-8.4-37.9-8.4-37.9h48.8l6.7,27.5L3739.8,127.6z
	 M3641.5,155.8c-10.4-6.4-35.3-3.6-56.5-3.6h-32.9c-20.6,0-32.8-1.4-34.9,6.7c-6.4,25.1-33.7,163.5-33.7,163.5h43.8l28.6-127.3h23.6
	c27.3,0,77.4-0.8,77.4-0.8S3651.1,161.7,3641.5,155.8 M3478.9,184.9c-1.4-5.1-2.6-12-5.1-15.5c-9.2-13.1-28-17.6-40.4-18.9
	c-33.1-3.5-60.6,5.6-75.8,17.2c-4.6,3.5-8.4,6.3-11.8,10.3c-1.2,1.4-2.5,3.1-3.6,4.7c-1,1.4-2.1,2.4-3.1,3.9
	c-1.4,2.2-2.9,6.3-4.6,9.9c-1.4,2.9-2.7,6.3-3.8,9c-9.1,23.3-18.4,66.8-10.1,89.5c1.2,3.4,4,7.6,4.9,8.9c1.2,1.6,2.3,3.5,3.5,4.9
	c4.6,5,11.3,8.6,18.5,10.3c36.5,8.9,109.4,5.2,109.4,5.2l8.9-40.5c0,0-51.6,2.4-76.3-0.8c-3.7-0.5-14-1-19.2-5.7
	c-4.6-4.1-10-13.8-6-20.1c2.8-4.5,14.1-3.2,23.6-3.5c30.4-0.9,85.9,0,85.9,0S3484.5,205.4,3478.9,184.9 M3372.4,217.4
	c0,0-0.7-28.8,37.3-27.6c13.5,0.4,18.2,2.3,23.3,10.4c6,9.5,4.6,17.6,4.6,17.6L3372.4,217.4z M3247.8,281.1c0,0-16.8,0.1-21.9,0
	c-16.2-0.4-21.5-0.9-25.3-8.6c-4-8.1-0.2-18.3,1.7-29.2c5.2-30.5,17.6-91.5,17.6-91.5l-44,0.4c0,0-8.4,39.2-12.4,58.4
	c-5.6,27.1-17.6,66.9-5,91.2c12.9,25,43.3,20.7,77.5,20.7h48.8c12.1-55.9,35.7-170.6,35.7-170.6l-42.5,0.2L3247.8,281.1z
	 M3138.4,171c-2.6-19.3-14.9-40.2-28.3-48.9c-0.5-0.3-3-2.3-3.7-2.7c-10-5.9-25.9-10.9-37-12c-57.3-6-91.5,20-111.1,55.1
	c-7.7,13.8-12.9,28.8-16.8,44.7c-4.4,17.7-7.6,39.1-5.1,58.5c1.5,11.7,7.8,28.2,16.9,37.9c22.3,23.7,66,20.7,112.8,20.7
	c14.3,0,48.7-0.3,59.1-0.6c3.4-0.1,13-40.1,12.1-41.4c-0.8-1-12.3,0.4-25.4-0.8C3124.6,246.8,3143.2,207,3138.4,171 M3079.4,234.6
	c-4.2,15.4-8.4,30.9-13.5,44.7c-34-0.2-65.6,4.5-75.8-17.2c-5.7-12.3-3.1-29,0-44.8c4.2-21.2,8.3-36.7,20.2-49.9
	c9.2-10.2,32.5-22.7,57.3-13.8c8.2,3,21,17.1,21.9,32.7C3090.4,201,3083.9,218.5,3079.4,234.6 M2931.5,152.2
	c-16.6,0-30.6-0.2-45.7-0.2c-3.7,12.5-6.4,26.9-10.1,41.3h47.2C2925.8,180.3,2928.6,165.4,2931.5,152.2 M2874,205.4
	c-2.3,7.7-14.5,59.9-18.5,79.2c-7,33.4-7.9,68.1-43.8,63.7c-3.5,12.9-7.8,30.2-11.7,44.6c14.7,0.3,28.3,1.5,40.3,0.1
	c7.4-0.8,20.7-4.1,23.6-6.9c1.2-1.1,2-0.6,3.4-1.7c15.6-12.5,19.5-29.7,25.3-53.3c9.2-37.8,21-92,26.9-125.6H2874 M2767.9,293.1
	c-14.6,15.1-38.5,25.6-57.3,27.5c-77.9,8.2-158.1-63.2-132-146.4l1-3.3c-0.6,0,4.4-7.7,3.8-7.7c-36.1,35.7-33,83.5-15.6,117.9
	c12.1,24,34.3,46.4,60.6,58.5c12.2,5.6,30.9,10.8,50.5,10.3c42-0.9,71.4-21.2,88-54.2L2767.9,293.1 M2720.8,258.7
	c-43.8-0.3-93.1-40.4-87.6-96.4c0.5-4.8,2.3-12.4,7.4-22.2c-14.6,18.7-23.4,34.2-20.9,60c3.4,35.5,36.2,71,70.7,75.7
	c41.2,5.6,71.9-12.1,82.5-39.6C2760.8,249.5,2740.4,258.9,2720.8,258.7 M2771,189.2c-26.3,18.3-42.6,12.2-50.3,9.9
	c-1.7-0.5-5.6-2.3-9.3-4.6c-8.2-5-12.2-7.3-18.5-16.7c-3.5-5.2-7-13.4-8.1-18.1c-1.9-7.8-1.4-19.8,2.2-30.1
	c-11.9,10.8-13.7,31.8-9.8,45.7c0.5,1.7,3.3,8.7,4.9,11.2c10.3,16.9,29.9,31.8,60.6,25.1C2750.4,209.9,2767.9,196.4,2771,189.2"/>
<path id="Logotype" class="st1" d="M5041.4,203.9h-71.1v7.5c22.2,0,25.8,4.8,25.8,33v50.8c0,28.2-3.6,33.3-25.8,33.3
	c-17.1-2.4-28.6-11.5-44.5-29l-18.3-19.8c24.6-4.4,37.7-19.9,37.7-37.3c0-21.8-18.7-38.5-53.6-38.5h-69.9v7.5
	c22.2,0,25.8,4.8,25.8,33v50.8c0,28.2-3.6,33.3-25.8,33.3v7.5h79v-7.5c-22.2,0-25.8-5.2-25.8-33.3V281h6.7l44.1,55.2h115.5
	c56.8,0,81.4-30.2,81.4-66.3C5122.8,233.7,5098.2,203.9,5041.4,203.9z M4875.1,268.7v-52.8h16.3c17.9,0,25.8,12.3,25.8,26.6
	c0,13.9-7.9,26.2-25.8,26.2H4875.1z M5042.6,323.9h-2.8c-14.3,0-16.3-3.6-16.3-21.8v-86.2c0,0,17.5,0,19.1,0
	c41.3,0,48.8,30.2,48.8,53.6C5091.4,293.7,5083.9,323.9,5042.6,323.9z M4600.7,283.4l27.4-81c7.9-23.4,4.4-30.2-21-30.2v-7.9h74.6
	v7.9c-25,0-31,6-40.9,34.9l-45.3,135.8h-5.2l-40.5-124.3l-41.3,124.3h-5.2l-44.1-135.8c-9.5-29-15.9-34.9-38.9-34.9v-7.9h88.1v7.9
	c-23.4,0-29.8,5.6-21.4,30.2l26.6,81l40.1-119.1h7.5L4600.7,283.4z M4735.7,341.3c-43.7,0-79.4-32.2-79.4-71.5
	c0-38.9,35.7-71.1,79.4-71.1c43.7,0,79.4,32.2,79.4,71.1C4815.1,309.2,4779.4,341.3,4735.7,341.3z M4735.7,211.1
	c-36.5,0-49.2,33-49.2,58.8c0,26.2,12.7,58.8,49.2,58.8c36.9,0,49.6-32.6,49.6-58.8C4785.3,244,4772.6,211.1,4735.7,211.1z
	 M5220.9,328.2v7.9H5130v-7.9c26.6,0,31.4-6.7,31.4-46.5v-63.5c0-39.7-4.8-46.1-31.4-46.1v-7.9h82.2c40.9,0,63.5,21,63.5,49.2
	c0,27.4-22.6,48.8-63.5,48.8h-22.6v19.5C5189.5,321.5,5194.3,328.2,5220.9,328.2z M5212.1,178.5h-22.6v69.1h22.6
	c22.2,0,32.6-15.5,32.6-34.1C5244.7,194.4,5234.4,178.5,5212.1,178.5z M5548.4,298.8l-2,7.1c-3.6,13.1-7.9,17.9-36.1,17.9h-5.6
	c-20.6,0-24.2-4.8-24.2-33v-18.3c31,0,33.4,2.8,33.4,23.4h7.5v-59.2h-7.5c0,20.6-2.4,23.4-33.4,23.4v-44.5h21.8
	c28.2,0,32.6,4.8,36.1,17.9l2,7.5h6.3l-2.8-37.3h-116.7v7.5c22.2,0,25.8,4.8,25.8,33v50.8c0,25.8-3,32.3-20.6,33.2
	c-16.7-2.5-28.1-11.6-43.7-28.8l-18.3-19.8c24.6-4.4,37.7-19.9,37.7-37.3c0-21.8-18.7-38.5-53.6-38.5h-69.9v7.5
	c22.2,0,25.8,4.8,25.8,33v50.8c0,28.2-3.6,33.3-25.8,33.3v7.5h79v-7.5c-22.2,0-25.8-5.2-25.8-33.3V281h6.7l44.1,55.2H5552l2.4-37.3
	H5548.4z M5338,268.7v-52.8h16.3c17.9,0,25.8,12.3,25.8,26.6c0,13.9-7.9,26.2-25.8,26.2H5338z M5629,341.3
	c-15.9,0-29.8-8.3-35.7-13.5c-2,2-5.6,7.9-6.3,13.5h-7.5v-54.8h7.9c3.2,26.2,21.4,41.7,44.9,41.7c12.7,0,23-7.1,23-19.1
	c0-10.3-9.1-18.3-25.4-25.8l-22.6-10.7c-15.9-7.5-27.8-20.7-27.8-38.1c0-19.1,17.9-35.3,42.5-35.3c13.1,0,24.2,4.8,31,10.3
	c2-1.6,4-6,5.2-10.7h7.5v46.9h-8.3c-2.8-18.7-13.1-34.1-34.1-34.1c-11.1,0-21.4,6.4-21.4,16.3c0,10.3,8.3,15.9,27.4,24.6l21.8,10.7
	c19.1,9.1,26.6,23.8,26.6,35.7C5677.5,323.9,5655.6,341.3,5629,341.3z M5749.1,341.3c-15.9,0-29.8-8.3-35.7-13.5
	c-2,2-5.6,7.9-6.3,13.5h-7.5v-54.8h7.9c3.2,26.2,21.4,41.7,44.9,41.7c12.7,0,23-7.1,23-19.1c0-10.3-9.1-18.3-25.4-25.8l-22.6-10.7
	c-15.9-7.5-27.8-20.7-27.8-38.1c0-19.1,17.9-35.3,42.5-35.3c13.1,0,24.2,4.8,31,10.3c2-1.6,4-6,5.2-10.7h7.5v46.9h-8.3
	c-2.8-18.7-13.1-34.1-34.1-34.1c-11.1,0-21.4,6.4-21.4,16.3c0,10.3,8.3,15.9,27.4,24.6l21.8,10.7c19.1,9.1,26.6,23.8,26.6,35.7
	C5797.5,323.9,5775.7,341.3,5749.1,341.3z M4223.9,82.1c22.7,0,44.7,4.4,65.4,13.2c9.9,4.2,19.5,9.4,28.5,15.5
	c8.9,6,17.3,12.9,24.9,20.5c7.6,7.6,14.5,16,20.5,24.9c6.1,9,11.3,18.6,15.5,28.5c8.8,20.7,13.2,42.7,13.2,65.4s-4.4,44.7-13.2,65.4
	c-4.2,9.9-9.4,19.5-15.5,28.5c-6,8.9-12.9,17.3-20.5,24.9c-7.6,7.6-16,14.5-24.9,20.5c-9,6.1-18.6,11.3-28.5,15.5
	c-20.7,8.8-42.7,13.2-65.4,13.2s-44.7-4.4-65.4-13.2c-9.9-4.2-19.5-9.4-28.5-15.5c-8.9-6-17.3-12.9-24.9-20.5
	c-7.6-7.6-14.5-16-20.5-24.9c-6.1-9-11.3-18.6-15.5-28.5c-8.8-20.7-13.2-42.7-13.2-65.4s4.4-44.7,13.2-65.4
	c4.2-9.9,9.4-19.5,15.5-28.5c6-8.9,12.9-17.3,20.5-24.9c7.6-7.6,16-14.5,24.9-20.5c9-6.1,18.6-11.3,28.5-15.5
	C4179.3,86.5,4201.3,82.1,4223.9,82.1 M4223.9,71.3c-98.7,0-178.7,80-178.7,178.7c0,98.7,80,178.7,178.7,178.7s178.7-80,178.7-178.7
	C4402.6,151.3,4322.6,71.3,4223.9,71.3L4223.9,71.3z M4075,250c0,58.9,34.2,109.9,83.9,134l-71-194.6
	C4079.7,207.9,4075,228.4,4075,250z M4324.4,242.5c0-18.4-6.6-31.1-12.3-41.1c-7.5-12.3-14.6-22.7-14.6-34.9
	c0-13.7,10.4-26.4,25-26.4c0.7,0,1.3,0.1,1.9,0.1c-26.5-24.3-61.8-39.1-100.5-39.1c-52,0-97.8,26.7-124.4,67.1
	c3.5,0.1,6.8,0.2,9.6,0.2c15.6,0,39.7-1.9,39.7-1.9c8-0.5,9,11.3,1,12.3c0,0-8.1,0.9-17,1.4l54.2,161.3l32.6-97.7l-23.2-63.6
	c-8-0.5-15.6-1.4-15.6-1.4c-8-0.5-7.1-12.7,0.9-12.3c0,0,24.6,1.9,39.2,1.9c15.6,0,39.7-1.9,39.7-1.9c8-0.5,9,11.3,0.9,12.3
	c0,0-8.1,0.9-17,1.4l53.8,160l15.4-48.7C4320.4,270.3,4324.4,255.2,4324.4,242.5z M4226.5,263l-44.7,129.8
	c13.3,3.9,27.4,6.1,42.1,6.1c17.3,0,34-3,49.4-8.4c-0.4-0.6-0.8-1.3-1.1-2.1L4226.5,263z M4354.6,178.6c0.6,4.7,1,9.8,1,15.3
	c0,15.1-2.8,32.1-11.3,53.3l-45.5,131.5c44.3-25.8,74-73.8,74-128.7C4372.8,224.1,4366.2,199.8,4354.6,178.6z"/>
</svg>
