<?xml version="1.0" encoding="utf-8"?>
<!-- Generator: Adobe Illustrator 25.2.0, SVG Export Plug-In . SVG Version: 6.00 Build 0)  -->
<svg version="1.1" id="Design" xmlns="http://www.w3.org/2000/svg" xmlns:xlink="http://www.w3.org/1999/xlink" x="0px" y="0px"
	 viewBox="0 0 32 32" style="enable-background:new 0 0 32 32;" xml:space="preserve">
<style type="text/css">
	.st0{fill:#FFFFFF;}
</style>
<g>
	<path class="st0" d="M32,6.1c-0.6,1-1.7,2.2-3.2,3.5v0.1c0,2.9-0.5,5.6-1.5,7.9c-3.5,7.6-9.4,11.5-17.6,11.5c-3,0-6.2-1-9.6-2.9
		v-0.1h0.1l0.8,0.1h0.6c3,0,5.7-0.9,8-2.7v-0.1c-0.6,0-1.5-0.2-2.4-0.5c-1.7-0.8-2.9-2.1-3.6-4l1.4,0.1l1.5-0.2v-0.2H6.2
		c-3.3-1.1-4.9-3.3-4.9-6.4c1.1,0.5,2,0.7,2.5,0.7H4c-1.8-1.6-2.7-3.4-2.7-5.4c0-1,0.3-2.1,0.8-3.2c1,1.1,2.2,2.2,3.5,3.2
		c3.7,2.4,7,3.6,9.9,3.6h0.1l0.1-0.1l-0.2-1.3C15.6,8.8,15.8,8,16,7.2c1.5-2.8,3.5-4.2,6.2-4.2c1.8,0,3.3,0.7,4.8,2
		c0.8,0,2.2-0.5,4-1.5h0.1c0,0.9-0.8,2-2.5,3.5c0.7,0,1.8-0.3,3.3-0.9H32z"/>
</g>
</svg>
