<?xml version="1.0" encoding="utf-8"?>
<!-- Generator: Adobe Illustrator 25.2.0, SVG Export Plug-In . SVG Version: 6.00 Build 0)  -->
<svg version="1.1" id="Layer_1" xmlns="http://www.w3.org/2000/svg" xmlns:xlink="http://www.w3.org/1999/xlink" x="0px" y="0px"
	 viewBox="0 0 1339.4 456.8" style="enable-background:new 0 0 1339.4 456.8;" xml:space="preserve">
<style type="text/css">
	.st0{fill:#DEDEDE;}
</style>
<path class="st0" d="M159.1,0h71.3v330.5c-68.4,10.9-133.9,17.8-180.7-7.8c-60.3-33-65.2-137.9-17.5-184.6
	c24.2-23.7,73-40.3,125.3-29.5V4.5C157.4,2.4,157.1,0.2,159.1,0 M73.4,223.3c-0.2,43.3,32.2,69.2,84,57.4V165.9
	C104.9,150.4,73.7,181.9,73.4,223.3 M346.1,0h-71.3v73h71.3V0z M1205.5,105.4c59.3-6.2,104.2,19.5,122,58.9
	c30.5,67.5-1.7,144.9-50.7,167.6c-25.4,11.8-52.1,12.9-76.1,10.8c-74.4-6.4-121.3-80.5-95.1-162.9c4.1-12.9,8.6-20.8,11.1-24.9
	C1132.8,128.2,1160.2,110.2,1205.5,105.4 M1202.3,283.9c77.8,29.6,86.4-136.2,7.9-121C1161.6,172.3,1163.1,268.9,1202.3,283.9
	 M569.7,333.5c-58.9,3.4-148.5,22.9-180.7-15.5c-18.9-22.6-16.9-65.7,0-86.9c21.8-27.3,69.5-33.3,112.5-37.2
	c3.9-9.4,1.3-24.8-3.1-31c-39.3-9.8-78.5,5.4-106.3,17.1v-54.4c41.9-18.8,139-38.7,168.1,4.6c15.2,22.8,9.5,62.5,9.5,97.7V333.5z
	 M444.5,257.5c-19.8,32.4,29.8,40.2,61.8,31v-48.1C481.8,243.8,453.8,242.2,444.5,257.5 M820.2,336.6c-3.5-53.9,4.6-120.3,0-164.4
	c-9.5-89.6-141.1-69.7-214-51.2v215.7h71.3V167.6c17.9-4.6,47.7-9.4,60.2,0c16,11.9,11.1,49.5,11.1,79.1v90h71.3 M1105.6,114.8
	c-6.4,18.6-15.7,34.4-23.8,51.2c-7.4,1.6-13.7-2.9-17.4,0c-1.6,75.7,16.4,178.1-14.3,232.7c-18.5,32.9-52.5,53.9-104.6,57.4
	c-37.9,2.6-67.3-3.6-95.1-13.9V377c32.5,18.6,114.8,33.7,137.9-4.6c6.8-11.2,6.4-23,9.5-40.3c-14.9,0.8-29.4,7.6-47.6,7.8
	c-74.8,1-121.1-57.3-103-138.1c6.9-31.2,25.7-56.4,50.7-71.3C950,99.2,1030,101.6,1105.6,114.8 M926.5,262.1
	c12,19,44.5,26.2,71.3,13.9c-1.5-36.3-1.9-73.5-1.6-111.7C934.6,148.4,897.8,216.8,926.5,262.1 M275,109.8
	c0,35.6-0.2,82.5-0.2,122.8c0,40.9,1.2,82.8-7.9,111.7c-10.5,33.3-36.3,45.6-63.5,62c11.7,3.5,22.1,10.4,33.3,15.6
	c8.5,3.9,27.5,14.4,34.9,13.9c7.4-0.4,20.2-10.6,26.9-15.5c8-5.9,17.7-14.4,22.2-20.2c22.9-29.4,22.3-78.3,25.3-139.7
	c0-62.5,0-99.5,0.1-150.8L275,109.8z"/>
</svg>
