<?xml version="1.0" encoding="UTF-8"?>
<svg id="Layer_2" data-name="Layer 2" xmlns="http://www.w3.org/2000/svg" viewBox="0 0 2548.81 423.01">
  <defs>
    <style>
      .cls-1 {
        fill: #dedede;
      }
    </style>
  </defs>
  <g id="Layer_1-2" data-name="Layer 1">
    <g>
      <path class="cls-1" d="m1633.94,221.39c-1.71,2.69-3.8,5.22-5.07,8.1-18.04,40.93-35.88,81.96-53.97,122.87-7.41,16.76-15.51,33.21-22.86,49.99-4.29,9.8-12.15,13.61-21.94,13.82-18.47.38-36.96.18-55.44.08-7.49-.04-11.57-3.68-12.37-11.09-2.31-21.15-4.48-42.31-6.65-63.47-2.58-25.17-5.19-50.33-7.64-75.51-2.26-23.29-4.28-46.6-6.5-69.9-2.47-25.82-4.98-51.63-7.61-77.44-.94-9.17,3.51-14.92,12.93-15.08,17.83-.29,35.67-.2,53.5-.19,6.68,0,10.46,3.69,11.18,10.04,1.41,12.46,2.89,24.94,3.6,37.46,1.61,28.28,2.72,56.6,4.13,84.89,1.19,23.81,2.46,47.61,3.83,71.4.14,2.36,1.18,4.67,3.48,7.29,1.06-1.84,2.33-3.6,3.14-5.54,11.19-26.7,22.09-53.53,33.54-80.12,11.46-26.62,23.44-53.02,35.2-79.52,5.27-11.88,10.51-23.77,15.82-35.63,3.27-7.3,8.87-11.38,17.05-11.42,16.33-.08,32.66-.23,48.98,0,8.48.12,11.16,3.05,11.79,11.11,2.93,37.34,6.05,74.67,8.77,112.02,2.1,28.87,3.71,57.78,5.56,86.67.08,1.19.4,2.37.88,5.13,2.12-2.38,3.89-3.59,4.55-5.24,15.25-38.18,30.12-76.51,45.62-114.58,11.73-28.8,24.25-57.29,36.43-85.92,2.53-5.96,7.29-9,13.59-9.08,18.26-.24,36.53-.46,54.78-.15,9.96.17,14.37,7.65,10.23,17-8.98,20.26-18.33,40.37-27.47,60.56-10.29,22.71-20.46,45.48-30.8,68.17-12.2,26.77-24.53,53.47-36.79,80.21-11.19,24.4-22.51,48.75-33.48,73.25-4.61,10.31-12.57,14.62-23.4,14.67-16.76.07-33.52.07-50.28.02-10.6-.04-15.09-3.6-16.3-13.71-2.62-21.96-4.88-43.96-7.37-65.93-2.44-21.55-5.31-43.05-7.36-64.64-1.33-13.98-1.48-28.07-2.26-42.11-.15-2.64-.76-5.26-1.16-7.89-.63-.21-1.25-.41-1.88-.62Z"/>
      <path class="cls-1" d="m184.35,241.43c5.68-7.02,10.41-12.71,14.97-18.53,16.46-21.04,32.84-42.13,49.29-63.17,12.24-15.66,24.7-31.15,36.73-46.96,4.97-6.54,10.9-9.47,19.2-9.36,15.45.21,30.92-.37,46.38-.51,7.75-.07,11.26,4.04,9.92,11.33-7.66,41.6-15.38,83.19-22.99,124.8-5.97,32.63-11.87,65.28-17.67,97.94-3.75,21.14-7.26,42.32-10.89,63.48-1.52,8.87-6.46,13.26-15.84,13.41-12.46.21-24.93.08-37.39.11-2.36,0-4.74-.06-7.09.18-12.57,1.26-16.59-2.91-14.4-15.31,7.08-39.99,14.2-79.98,21.33-119.96,2.16-12.14,4.44-24.26,6.53-36.42.38-2.22.05-4.55.05-8.96-3.37,2.99-5.76,4.57-7.44,6.7-15.19,19.3-30.2,38.75-45.38,58.06-11.35,14.44-22.71,28.89-34.4,43.07-7.01,8.5-18.14,6.78-22.52-3.25-13.66-31.26-27.14-62.59-40.84-93.83-1.71-3.89-4.33-7.38-6.53-11.06-.71.19-1.42.39-2.13.58-.8,5.92-1.42,11.87-2.43,17.76-5.89,34.59-11.84,69.18-17.82,103.76-2.65,15.3-5.29,30.61-8.14,45.88-1.69,9.05-5.72,12.58-14.89,12.71-16.55.23-33.1.25-49.64.1-7.9-.07-11.47-4.92-10.02-12.67,4.4-23.63,8.86-47.25,13.13-70.91,5.29-29.28,10.46-58.59,15.61-87.89,6.92-39.37,13.77-78.75,20.63-118.13.18-1.05.19-2.12.29-3.18,1.27-13.71,5.26-17.48,19.03-17.6,14.4-.12,28.82.36,43.19-.24,8.82-.36,13.63,3.72,16.76,11.06,7.34,17.25,14.67,34.5,22.03,51.75,9.53,22.35,19.05,44.7,28.65,67.02.98,2.27,2.45,4.33,4.71,8.26Z"/>
      <path class="cls-1" d="m747.71,283.21c-4.01,23.25-7.54,44.39-11.33,65.48-3.23,17.99-6.74,35.93-10.12,53.9-1.28,6.79-5.98,9.78-12.35,9.88-19.12.3-38.24.29-57.37.32-5.76,0-9.04-2.68-8.14-8.75,2.14-14.29,4.25-28.59,6.71-42.83,4.92-28.49,10.04-56.95,15.11-85.42,4.36-24.49,8.71-48.98,13.16-73.45,5.4-29.7,10.86-59.38,16.37-89.06,1.53-8.25,3.94-10.59,12.42-10.81,13.96-.36,27.93-.16,41.89-.27,4.29-.03,8.58-.41,12.87-.45,7.86-.07,11.53,3.05,10.63,10.71-1.23,10.53-3.61,20.92-5.49,31.37-3.27,18.21-6.58,36.42-9.75,54.65-.41,2.36-.06,4.85-.06,7.28.57.26,1.14.52,1.71.79,2.38-2.53,4.65-5.18,7.16-7.59,28.13-26.93,57.04-53.12,84.12-81.05,12.58-12.97,26.07-16.98,43.09-15.89,13.91.88,27.92.1,41.89.33,8.21.13,11.48,5.27,7.27,12.25-3.03,5.03-7.36,9.42-11.63,13.56-29.93,29.04-59.97,57.96-90.02,86.88-9.86,9.49-19.75,18.96-29.86,28.2-4.58,4.19-4.28,7.4-.73,12.47,6.59,9.41,12.09,19.59,17.93,29.51,20.54,34.93,41.04,69.89,61.53,104.86,1.94,3.31,3.95,6.62,5.44,10.13,2.77,6.52-.91,13.35-7.91,13.47-19.97.33-39.96.25-59.93-.17-5.68-.12-9.52-4.14-12.39-9.1-20.93-36.2-41.95-72.35-63.06-108.45-2.32-3.97-5.37-7.52-9.17-12.77Z"/>
      <path class="cls-1" d="m531.14,102.26c10.53,0,21.06-.15,31.59.04,9.83.18,13.57,4.04,15.19,13.72,2.95,17.62,6.29,35.17,9.4,52.76,5.22,29.51,10.4,59.02,15.59,88.53,5.27,29.95,10.56,59.9,15.79,89.85,2.7,15.49,5.51,30.96,7.83,46.5,1.71,11.46-2.1,19.61-16.13,19.21-17.39-.5-34.81-.07-52.21-.15-8.17-.04-11.81-3.14-12.91-11.1-1.86-13.49-3.61-26.99-5.22-40.51-.51-4.3-2.17-6.38-6.92-6.36-30.3.15-60.6.17-90.9,0-4.49-.03-6.62,2.23-8.36,5.63-7.39,14.42-15.02,28.73-22.09,43.3-3.42,7.05-8.55,10.23-16.21,10.21-18.26-.05-36.53.06-54.8-.03-7.53-.04-10.78-4.03-8.28-11.22,2.21-6.39,5.59-12.4,8.75-18.43,23.23-44.4,46.54-88.77,69.8-133.15,21.48-40.99,42.92-82,64.4-123,2.97-5.67,6.09-11.26,9.06-16.92,3.18-6.07,8.03-9.08,15.05-8.97,10.53.17,21.06.04,31.59.06Zm-10.67,80.74c-5.35,3.29-53.38,98.24-54.16,106.46,2.13,0,4.17,0,6.22,0,17.61,0,35.22,0,52.82,0,10.16,0,10.39-.48,9-10.53-3.42-24.62-6.55-49.28-9.96-73.89-1-7.25-2.55-14.43-3.91-22.03Z"/>
      <path class="cls-1" d="m1077.61,103.31c29.44,0,58.88.01,88.32,0,10.64,0,14.41,4.36,12.55,14.81-2.16,12.14-4.41,24.27-6.64,36.41-1.69,9.22-7.71,13.49-19.43,13.5-33.31.04-66.62,0-99.93,0-16.4,0-12.93-1.12-15.56,13.3-2.21,12.13-4.23,24.3-6.52,36.42-1.13,5.99,1.12,7.82,7.13,7.78,33.31-.22,66.62-.13,99.93-.13,11.9,0,14.69,3.36,12.59,14.74-2.05,11.08-3.91,22.19-5.97,33.26-1.85,9.96-7.99,14.91-18.37,14.91-32.88.02-65.76,0-98.64,0-9.36,0-9.49.65-11.06,9.98-2.43,14.46-5.42,28.84-8.48,43.18-1.82,8.5-1.19,9.06,7.43,9,28.78-.19,57.56.03,86.34,0,7.29,0,14.61-.09,21.87-.65,8.87-.67,14.16,4.23,12.72,13.04-2.26,13.85-4.73,27.67-7.59,41.41-1.29,6.2-6.47,8.77-12.39,9.45-3.61.41-7.3.25-10.95.25-53.29,0-106.59-.03-159.88.01-4.49,0-9,.35-13.48.74-8.66.76-13.31-4.37-11.72-12.96,7.44-40.36,15.01-80.69,22.23-121.09,6.99-39.13,13.62-78.32,20.38-117.49,2.35-13.61,4.63-27.24,6.99-40.85,2.57-14.81,7.13-18.71,22.4-18.76,28.58-.08,57.16-.02,85.74-.02,0-.08,0-.16,0-.24Z"/>
      <path class="cls-1" d="m1324.45,97.08c27.61-1.05,54.26,3.29,79.83,13.81,13.95,5.74,17.39,14.82,10.5,27.84-5.09,9.61-10.26,19.17-15.41,28.75-3.96,7.35-9.84,9.74-17.68,7.08-18.79-6.39-38.11-10.13-57.97-10.1-13.08.02-26.05,1.33-38.15,7.35-9.16,4.56-12.83,12.13-13.53,21.59-.67,8.96,4.03,15.18,11.62,19,14.91,7.49,29.92,14.84,45.14,21.68,17.73,7.96,34.29,17.68,48.76,30.59,18.93,16.88,23.85,38.66,21.15,62.77-4.27,38.21-25.2,64.02-59.99,79.85-29.86,13.59-60.99,18.07-93.49,14.57-13.84-1.49-27.95-1.65-41.47-4.56-13.05-2.8-26.02-7.27-38.05-13.02-11.86-5.66-12.67-12.78-6.83-22.17,6.18-9.92,10.75-20.82,15.99-31.32,4.56-9.13,9.23-11.34,19.12-8.29,21.53,6.65,43.04,13.19,66.02,12.2,15.58-.67,30.66-3.28,44.81-10.04,8.4-4.01,13.26-10.73,14.17-19.9.98-9.87-2.61-17.57-12.1-21.81-17.58-7.86-35.33-15.36-52.74-23.57-22.78-10.75-43.76-23.64-55.02-47.73-6.14-13.15-6.02-26.89-5.13-40.73,1.84-28.76,13.07-53.19,37.52-69.45,24.34-16.19,51.71-24.48,81.32-24.42,3.87,0,7.74,0,11.6,0Z"/>
      <path class="cls-1" d="m2220.54,164.27c-16.97,0-33.94.01-50.92,0-10.07,0-10.69.29-12.64,10.31-2.99,15.44-5.5,30.98-8.64,46.4-1.12,5.51.28,7.18,5.92,7.15,33.73-.18,67.46-.1,101.19-.1,11.1,0,14.97,4.14,13.12,14.87-2.19,12.78-4.7,25.51-7.31,38.21-1.77,8.58-7.41,12.3-18.25,12.31-32.44.04-64.88.01-97.32.02-9.72,0-9.57.03-11.2,9.34-4.58,26.17-9.32,52.31-13.94,78.48-1.11,6.28-1.77,12.63-2.97,18.89-1.58,8.28-6.27,12.38-14.59,12.46-18.04.18-36.09.06-54.14.17-5.47.03-8.01-2.63-7.74-7.83.23-4.44.67-8.9,1.43-13.28,5.5-31.62,11.03-63.24,16.7-94.83,7.47-41.64,15.07-83.26,22.62-124.88,3.56-19.66,7.05-39.32,10.73-58.96,1.46-7.81,4.15-10.24,12.1-10.48,11.16-.34,22.34-.26,33.51-.26,46.62-.02,93.24-.03,139.86,0,17.85.01,19.47,1.57,17.26,18.92-1.37,10.74-3.52,21.39-5.69,32.01-1.54,7.53-6.55,11.09-14.97,11.13-18.05.08-36.09.02-54.14.02v-.05Z"/>
      <path class="cls-1" d="m2435.92,103.57c33.94,0,67.89-.06,101.83.04,11.68.03,12.29,1.66,9.97,12.79-2.51,12.05-3.73,24.36-5.61,36.54-1.76,11.41-8.34,17.49-19.97,17.55-19.1.11-38.2-.35-57.3-.32-1.4,0-3.83,1.8-4.05,3.06-5.81,33.52-11.27,67.1-17.06,100.62-2.35,13.61-5.53,27.08-8.03,40.66-5.16,28.01-10.13,56.06-15.15,84.1-1.8,10.06-6.13,13.92-16.56,14.04-17.18.2-34.37.27-51.56.26-8.57,0-11.89-4.16-10.3-12.84,6.03-33.04,12.23-66.06,18.18-99.11,6.36-35.34,12.5-70.73,18.77-106.09,1.04-5.86,2.12-11.71,3.45-17.51,1.14-4.96-.22-6.96-5.68-6.9-19.12.24-38.24.13-57.36.11-7.86,0-12.3-3.78-11.07-11.24,2.44-14.86,5.34-29.71,9.19-44.27,2.65-10.01,5.84-11.52,16.48-11.54,33.94-.06,67.89-.02,101.83-.02v.06Z"/>
      <path class="cls-1" d="m1995.77,101.24c2.77.4,4.95.97,7.14.99,9.46.09,18.92-.15,28.37.05,11.69.26,16.07,7.26,10.39,17.5-6.73,12.11-14.35,23.73-21.51,35.6-15.19,25.21-30.33,50.44-45.5,75.67-10.78,17.93-21.39,35.97-32.55,53.66-1.59,2.52-5.74,4.02-8.99,4.78-3.46.81-7.27.23-10.92.15-7.36-.17-9.77-3.09-7.9-10.14,4.19-15.84,8.59-31.63,12.91-47.44,4.87-17.86,9.77-35.71,14.6-53.58,1.81-6.68,1.11-7.51-5.73-7.5-7.52,0-15.04.06-22.56.02-8.4-.05-14.56-7.52-12.35-15.5,13.06-47.18,26.15-94.35,39.48-141.46C1944.16,1.57,1946.94-.02,1960,0c26.87.05,53.73.08,80.6.19,4.18.02,9.11-1.18,11.39,3.78,2.49,5.42,1.69,10.82-1.74,15.75-6.82,9.82-13.76,19.56-20.48,29.44-10.69,15.7-21.25,31.49-31.82,47.27-.79,1.18-1.21,2.62-2.19,4.83Z"/>
      <path class="cls-1" d="m1907.17,413.91c-8.37,0-16.74.12-25.1-.03-9.17-.17-12.72-3.7-10.86-12.25,3.62-16.59,7.57-33.15,12.25-49.47,3.11-10.85,7.09-12.98,18.36-12.98,15.66,0,31.32,0,46.98.07,9.63.04,12.32,2.74,11.56,12.35-.35,4.4-1.44,8.78-2.54,13.09-2.95,11.53-6.1,23-9.13,34.51-3.06,11.61-6.91,14.63-18.99,14.76-3.86.04-7.72.01-11.58.02-3.65,0-7.29,0-10.94,0v-.06Z"/>
    </g>
  </g>
</svg>