<?xml version="1.0" encoding="UTF-8"?>
<svg id="Layer_2" data-name="Layer 2" xmlns="http://www.w3.org/2000/svg" viewBox="0 0 422.5 422.4">
  <defs>
    <style>
      .cls-1 {
        fill: #dedede;
      }
    </style>
  </defs>
  <g id="Layer_1-2" data-name="Layer 1">
    <path class="cls-1" d="m422.5,193.16v37.11c-.25.9-.63,1.78-.74,2.7-7.02,60.58-34.83,109.44-82.77,146.95-4.15,3.25-8.58,6.14-13.01,9.28-1.55-2.3-2.71-3.99-3.85-5.7-52.96-80.1-106.05-160.12-158.69-240.42-5.15-7.86-10.78-11.43-19.79-10.16-1.08.15-2.2.04-3.29.14-5.18.47-8.06,3.65-8.07,8.88-.04,30.78-.08,61.56-.1,92.34-.02,22.12-.02,44.25,0,66.37,0,5.86,3.04,8.87,8.81,8.9,2.2,0,4.4.02,6.6-.04,8.16-.23,10.14-2.26,10.19-10.41.19-36.68.38-73.37.56-110.05.01-2.5,0-4.99,0-7.49.44-.08.88-.15,1.32-.23,49.17,72.95,97.53,146.47,152.45,215.69-1.84,1.1-2.74,1.71-3.7,2.21-17.07,8.78-34.98,15.24-53.82,19-7.77,1.55-15.6,2.79-23.41,4.17h-39.58c-1.03-.27-2.05-.67-3.1-.8-61.74-7.72-111.51-36.3-148.27-86.47C7.97,291.09-4.52,241.24,1.44,187.19c5.55-50.33,27.17-93.26,63.78-128.3C102.14,23.57,146.34,3.75,197.33.48c44.49-2.85,86.38,6.91,124.37,30.73,51.58,32.35,84.01,78.4,96.79,138.05,1.69,7.89,2.7,15.93,4.02,23.9Zm-135.17,87.97c.34-.1.69-.19,1.03-.29,0-1.61,0-3.22,0-4.84.03-22.4.1-44.79.07-67.19-.03-24.59-.09-49.18-.25-73.77-.03-4.74-3.05-7.59-7.79-7.79-3.02-.13-6.05-.07-9.07-.02-5.86.08-8.82,2.98-8.85,8.92-.14,34.49-.23,68.97-.29,103.46,0,1.34.02,2.92.7,3.97,8.07,12.56,16.27,25.05,24.44,37.55Z"/>
  </g>
</svg>