<?xml version="1.0" encoding="UTF-8"?>
<svg id="Layer_2" data-name="Layer 2" xmlns="http://www.w3.org/2000/svg" viewBox="0 0 474.4 422.4">
  <defs>
    <style>
      .cls-1 {
        fill: #dedede;
      }
    </style>
  </defs>
  <g id="Layer_1-2" data-name="Layer 1">
    <path class="cls-1" d="m281.3,211.2c0-24.4-19.8-44.2-44.2-44.2s-44.2,19.8-44.2,44.2,19.8,44.2,44.2,44.2,44.2-19.7,44.2-44.2m171.7,0c-.1,15.2-22.3,34.4-56.5,48.9-8.3,3.6-17.4,6.8-26.8,9.8-5.5-19-12.7-38.7-21.7-58.9,8.9-20.1,16.1-39.7,21.5-58.6,9.6,3,18.6,6.3,27.2,9.9,34.1,14.6,56.3,33.8,56.3,48.9m-104.5-64.5c-3.6,12.5-8,25.4-13,38.2-4-7.7-8.1-15.5-12.7-23.2-4.4-7.7-9.2-15.3-13.9-22.6,13.7,2,26.9,4.6,39.6,7.6m-44.4,26c7.4,12.7,14,25.5,20.1,38.5-6.1,13-12.7,25.9-20,38.6-7.5,13-15.3,25.4-23.3,36.9-14.4,1.2-29,1.9-43.7,1.9s-29.2-.7-43.5-1.9c-8-11.5-15.8-23.8-23.4-36.7-7.4-12.7-14-25.5-20.1-38.5,6-13,12.8-25.9,20-38.6,7.5-13,15.3-25.4,23.3-36.9,14.4-1.3,29-1.9,43.7-1.9s29.2.7,43.5,1.8c8,11.5,15.9,23.8,23.4,36.8m-40.3-59.6c-8.7-.4-17.6-.7-26.6-.7s-18.1.2-26.9.7c8.7-11.3,17.7-21.7,26.6-30.9,9,9.2,18,19.6,26.9,30.9m-42.1-46.1c-13.6,14.2-27.1,30.4-40,48.3-21.9,2.3-42.5,5.9-61.5,10.6-2.2-9.7-3.9-19-5-28-4.6-36.9,1.1-65.7,14.1-73.3,2.9-1.8,6.7-2.5,11.1-2.5v-.1c20-.1,49.7,15.9,81.3,45m-95.3,144.5c-8.9,20.1-16.1,39.7-21.4,58.6-9.6-3-18.7-6.3-27.1-9.9-34.2-14.6-56.4-33.7-56.4-48.9s22.1-34.4,56.4-48.9c8.3-3.6,17.4-6.8,26.8-9.8,5.4,18.9,12.7,38.6,21.7,58.9m12.5-26.3c-5.2-13-9.7-25.9-13.3-38.5,12.7-3,26-5.6,39.8-7.6-4.7,7.4-9.5,15.1-13.9,22.9-4.5,7.8-8.7,15.5-12.6,23.2m0,52.4c4,7.7,8.1,15.5,12.7,23.2,4.6,7.7,9.2,15.3,13.9,22.6-13.7-2-27-4.6-39.6-7.7,3.5-12.4,7.9-25.3,13-38.1m-23.4,87.6c1.1-9.1,2.8-18.6,4.9-28.4,18.9,4.6,39.6,8.2,61.4,10.5,13,17.9,26.6,34.1,40.2,48.4-31.5,29.3-61.1,45.3-81.2,45.3-4.4-.1-8-1-10.9-2.6-13.2-7.6-18.9-36.3-14.4-73.2m121.9,15.2c-9-9.3-18-19.6-26.9-31,8.7.4,17.6.7,26.6.7s18.1-.2,26.9-.7c-8.7,11.3-17.7,21.7-26.6,31m71.6-57c4.7-7.4,9.5-15.1,13.9-22.9,4.4-7.7,8.6-15.6,12.6-23.3,5.2,13,9.7,25.9,13.3,38.5-12.7,3-26,5.6-39.8,7.7m-56.2,72c13.6-14.2,27.1-30.4,40-48.3,21.9-2.3,42.5-5.9,61.5-10.6,2.2,9.8,4,19.2,5,28.1,4.6,36.9-1.1,65.7-14.1,73.3-2.9,1.8-6.7,2.5-11.1,2.5-20.1.1-49.8-15.9-81.3-45m121.9-223.8c13.9-61.5,7.7-110.4-19.5-126.1-6.3-3.7-13.6-5.4-21.6-5.4v21.5h-.1v.1c4.4,0,8,.9,11,2.5,13.1,7.5,18.9,36.2,14.4,73.2-1.1,9.1-2.8,18.7-4.9,28.5-18.9-4.7-39.7-8.2-61.4-10.6-13.1-17.9-26.6-34.1-40.2-48.3,31.5-29.3,61-45.3,81.1-45.3V.1h.1v-.1c-26.6,0-61.4,19-96.6,51.8C201.8,19.1,167,.4,140.4.4v.1c-8.1,0-15.5,1.8-21.9,5.4-27.2,15.7-33.3,64.5-19.3,125.8C39.2,150.2,0,179.9,0,211.2s39.4,61.2,99.7,79.7c-13.9,61.5-7.7,110.4,19.5,126.1,6.3,3.7,13.6,5.4,21.7,5.4,26.6,0,61.4-19,96.6-51.8,35.2,32.7,70,51.5,96.6,51.5,8.1,0,15.5-1.8,21.9-5.4,27.2-15.7,33.3-64.5,19.3-125.8,59.9-18.5,99.1-48.3,99.1-79.6,0-31.5-39.3-61.2-99.7-79.7"/>
  </g>
</svg>