<?xml version="1.0" encoding="UTF-8"?>
<svg id="Layer_2" data-name="Layer 2" xmlns="http://www.w3.org/2000/svg" viewBox="0 0 391.12 423.85">
  <defs>
    <style>
      .cls-1 {
        fill: #dedede;
      }
    </style>
  </defs>
  <g id="Layer_1-2" data-name="Layer 1">
    <path class="cls-1" d="m90.06,235.35h45.09q3.65,0,3.65,3.92v143.15c0,5-.65,4.65,4.43,4.68h31.06q4.16,0,4.16-4.51c0-47.92.03-95.82-.05-143.72,0-2.81.73-3.59,3.3-3.57,14.35.14,28.68.03,43.03.11,1.97,0,2.68-.65,2.65-2.81-.08-9.68-.08-19.33,0-28.98.03-2.32-.81-2.97-2.87-2.97-43.95.03-87.9.05-131.85-.03-2.32,0-2.81.95-2.78,3.24.08,9.49.03,18.95.03,28.41,0,.92.08,1.81.16,3.08m151.02,101.58c.24,1.81.59,3.19.59,4.6.05,10.22.03,20.41.03,30.62,0,6.87,0,6.89,6.03,9.35,9.33,3.81,19,5.81,28.92,6.84,14.89,1.51,29.65.97,44.14-3.05,10.87-3.05,21.22-7.87,27.89-18,11.3-17.14,13.16-36.11,6.3-55.74-4-11.54-12.46-19.27-22.11-25-9.7-5.78-19.92-10.6-29.98-15.68-6.19-3.14-12.19-6.54-16.89-12.03-6.32-7.41-5.27-17.03,2.35-22.84,4.57-3.49,9.84-5.11,15.27-5.54,16.27-1.27,31.73,1.87,45.79,11.33.54.35,1.16.54,2.22,1v-33.22c0-6.54,0-6.57-5.78-8.33-19.95-6.03-40.11-6.65-60.41-2.68-10.41,2.05-20.06,6.24-28.22,13.7-9.51,8.68-14.89,19.68-16.11,33.22-.86,9.43-.03,18.54,3.43,27.22,4.76,11.81,13.14,20.08,23.38,25.98,9.11,5.27,18.6,9.73,27.95,14.54,6.6,3.41,13.06,7.16,17.7,13.54,6.11,8.38,4.03,18.95-4.54,24.14-5.87,3.57-12.33,4.57-18.87,4.76-13.89.43-26.87-3.46-38.84-10.97-3.3-2.05-7.03-3.7-9.05-7.65-.14-.22-.86-.08-1.19-.11M0,383.55V40.27c.27-1.78.54-3.57.81-5.35C3.38,18.03,15.22,4.7,30.76,1.27c2.14-.46,4.27-.84,6.41-1.27h316.79c1.65.3,3.3.59,4.95.86,15.7,2.81,28,15.73,31.08,32.73.41,2.22.76,4.46,1.14,6.68v343.28c-.22.86-.57,1.73-.65,2.62-1.54,18.3-13.62,32.84-30.33,36.41-2.22.46-4.46.84-6.7,1.27H37.68c-.89-.24-1.78-.62-2.68-.7-16.76-1.51-30.44-14.6-33.79-32.35-.46-2.41-.81-4.84-1.22-7.24"/>
  </g>
</svg>